<svg xmlns="http://www.w3.org/2000/svg" viewBox="0 0 155 155"><defs><style>.cls-1{fill:none;}.cls-2{fill:#fff;}</style></defs><g id="Layer_2" data-name="Layer 2"><g id="Layer_1-2" data-name="Layer 1"><g id="Layer_2-2" data-name="Layer 2"><g id="Layer_1-2-2" data-name="Layer 1-2"><circle class="cls-1" cx="77.5" cy="77.5" r="77.5"/></g></g><g id="Layer_2-3" data-name="Layer 2"><g id="Layer_1-2-3" data-name="Layer 1-2"><path class="cls-2" d="M76,105.55,113.59,67.6l14.69,14.66-37.43,37.8Z"/><path class="cls-2" d="M132.31,78.16,117.64,63.5a3.12,3.12,0,0,1,.25-.35c2.49-2.49,4.8-5,7.28-7.26a10.41,10.41,0,0,1,15.16,14.22,5.06,5.06,0,0,1-.67.72Z"/><path class="cls-2" d="M73.48,109.85l13.94,13.62-21.57,7.06Z"/><path class="cls-2" d="M45.32,29.94C30,29.94,17.46,53.83,17.06,83.58V88.8c1,13.69,13.05,24.53,27.84,24.7h.69c14.91-.17,26.87-11,27.84-24.7V83.58C73.18,53.83,60.68,29.94,45.32,29.94Zm0,3.18c3.25,0,5.91,1.37,5.91,3s-2.66,3-5.91,3-5.89-1.34-5.89-3S42.06,33.12,45.32,33.12Zm0,70.42c-10.47,0-18.94-6.76-18.94-15.12s8.47-15.13,18.94-15.13,19,6.78,19,15.13S55.78,103.54,45.32,103.54Z"/></g></g></g></g></svg>