<?xml version="1.0" encoding="UTF-8"?><svg id="Layer_2" xmlns="http://www.w3.org/2000/svg" viewBox="0 0 155 155"><defs><style>.cls-1{fill:#fff;}.cls-2{fill:none;}</style></defs><g id="Layer_2-2"><g id="Layer_1-2"><polygon class="cls-1" points="53.5 32.21 53.5 36.03 44.85 36.03 44.85 44.05 40.98 44.05 40.98 32.21 53.5 32.21"/><polygon class="cls-1" points="53.5 60.79 53.5 64.62 40.98 64.62 40.98 52.78 44.85 52.78 44.85 60.79 53.5 60.79"/><path class="cls-1" d="M57.09,49.31c1.87-.68,2.79-1.83,2.79-3.59,0-1.04-.4-1.87-1.16-2.47-.8-.64-1.83-.92-3.15-.92h-5.18v12.08h2.27v-4.9h1.95l2.79,4.9h2.63l-2.95-5.1Zm-1.52-1.79h-2.91v-3.19h2.91c1.36,0,1.99,.56,1.99,1.59s-.64,1.59-1.99,1.59Z"/><polygon class="cls-1" points="75.11 52.38 75.11 54.41 66.7 54.41 66.7 42.33 75.03 42.33 75.03 44.37 68.97 44.37 68.97 47.16 74.55 47.16 74.55 49.19 68.97 49.19 68.97 52.38 75.11 52.38"/><path class="cls-1" d="M93.29,51.42c-.76,1.16-1.56,1.99-2.35,2.47-.8,.52-1.83,.76-3.11,.76-1.79,0-3.27-.56-4.47-1.75s-1.71-2.67-1.71-4.55,.6-3.35,1.79-4.51c1.16-1.2,2.67-1.75,4.47-1.75,1.24,0,2.31,.28,3.27,.84,.96,.6,1.63,1.36,2.03,2.31l-1.83,1.32c-.76-1.59-1.91-2.39-3.55-2.39-1.08,0-1.99,.4-2.75,1.16-.76,.8-1.12,1.79-1.12,3.03s.36,2.23,1.12,3.03,1.67,1.16,2.75,1.16c1.59,0,2.83-.8,3.67-2.39l1.79,1.28Z"/><polygon class="cls-1" points="114.46 32.21 114.46 44.05 110.63 44.05 110.63 36.03 100.47 36.03 100.47 32.21 114.46 32.21"/><path class="cls-1" d="M105.93,48.19c0,1.75-1.4,3.15-3.15,3.15s-3.19-1.4-3.19-3.15,1.44-3.15,3.19-3.15,3.15,1.4,3.15,3.15Z"/><polygon class="cls-1" points="114.46 52.78 114.46 64.62 100.47 64.62 100.47 60.79 110.63 60.79 110.63 52.78 114.46 52.78"/><path class="cls-1" d="M136.35,110c0,3.43-1.4,6.54-4.23,9.05-2.83,2.47-6.58,3.75-11.28,3.75-4.94,0-8.89-1.2-11.84-3.63-2.91-2.43-4.78-5.66-5.66-9.69l6.94-3.55c1.2,6.66,4.74,9.97,10.49,9.97,2.39,0,4.23-.52,5.66-1.56,1.4-1.04,2.07-2.39,2.07-4.03,0-1.83-.8-3.27-2.43-4.31-1.67-1.04-4.27-1.91-7.85-2.63-3.99-.8-7.14-2.23-9.49-4.31-2.35-2.07-3.51-4.78-3.51-8.17s1.36-6.22,4.03-8.29c2.71-2.07,6.22-3.11,10.61-3.11,7.93,0,13.2,3.55,15.79,10.69l-6.14,3.55c-1.67-4.9-4.94-7.34-9.85-7.34-1.95,0-3.63,.36-4.94,1.08-1.32,.76-1.99,1.83-1.99,3.27,0,1.56,.8,2.87,2.35,3.87,1.59,1.04,4.15,1.87,7.7,2.59,4.59,.96,8.01,2.47,10.29,4.55,2.23,2.03,3.31,4.82,3.31,8.25Z"/><path class="cls-1" d="M92.45,85.63c-4.07-4.11-9.17-6.14-15.31-6.14s-11.28,2.03-15.35,6.14c-4.03,4.11-6.06,9.29-6.06,15.51s2.03,11.4,6.06,15.47c4.07,4.11,9.21,6.18,15.35,6.18s11.24-2.07,15.31-6.18c4.07-4.07,6.1-9.25,6.1-15.47s-2.03-11.4-6.1-15.51Zm-5.66,26c-2.59,2.59-5.74,3.91-9.65,3.91s-7.14-1.32-9.65-3.91c-2.55-2.59-3.83-6.1-3.83-10.49s1.28-7.93,3.83-10.49c2.51-2.63,5.78-3.91,9.65-3.91s7.06,1.28,9.65,3.91c2.51,2.55,3.79,6.1,3.79,10.49s-1.28,7.89-3.79,10.49Z"/><path class="cls-1" d="M51.66,110c0,3.43-1.44,6.54-4.27,9.05-2.83,2.47-6.58,3.75-11.28,3.75-4.94,0-8.89-1.2-11.8-3.63-2.95-2.43-4.82-5.66-5.66-9.69l6.9-3.55c1.24,6.66,4.74,9.97,10.53,9.97,2.35,0,4.23-.52,5.62-1.56s2.11-2.39,2.11-4.03c0-1.83-.8-3.27-2.47-4.31-1.63-1.04-4.23-1.91-7.81-2.63-4.03-.8-7.18-2.23-9.53-4.31-2.35-2.07-3.51-4.78-3.51-8.17s1.36-6.22,4.03-8.29c2.71-2.07,6.26-3.11,10.61-3.11,7.97,0,13.2,3.55,15.83,10.69l-6.18,3.55c-1.67-4.9-4.94-7.34-9.81-7.34-1.99,0-3.67,.36-4.98,1.08-1.32,.76-1.95,1.83-1.95,3.27,0,1.56,.76,2.87,2.35,3.87,1.56,1.04,4.15,1.87,7.66,2.59,4.62,.96,8.05,2.47,10.29,4.55,2.23,2.03,3.35,4.82,3.35,8.25Z"/></g><g id="Layer_2-3"><g id="Layer_1-2-2"><g id="Layer_2-2"><g id="Layer_1-2-2"><circle class="cls-2" cx="77.5" cy="77.5" r="77.5"/></g></g></g></g></g></svg>