<svg xmlns="http://www.w3.org/2000/svg" viewBox="0 0 155 155"><defs><style>.cls-1{fill:none;}.cls-2{fill:#fff;}</style></defs><g id="Layer_2" data-name="Layer 2"><g id="Layer_1-2" data-name="Layer 1"><g id="Layer_2-2" data-name="Layer 2"><g id="Layer_1-2-2" data-name="Layer 1-2"><circle class="cls-1" cx="77.5" cy="77.5" r="77.5"/></g></g><path class="cls-2" d="M75.28,30.14h4.44c1.63.28,3.28.46,4.89.85a28.35,28.35,0,0,1,15.53,9.89,28.46,28.46,0,0,1,6.59,16.55c.21,3.28.13,6.59.17,9.88,0,.33,0,.66,0,1.1h1.64a4.7,4.7,0,0,1,4,2.2,8.31,8.31,0,0,1,1.33,5q0,21,0,42a13.73,13.73,0,0,1-.15,2,5.62,5.62,0,0,1-6,5.24H64.65c-6,0-12,0-17.94,0a5,5,0,0,1-4.4-2.41,8.34,8.34,0,0,1-1.22-4.76q0-21.09,0-42.17a12.08,12.08,0,0,1,.33-2.74A5.28,5.28,0,0,1,47,68.41H48.1v-1.1c0-2.37-.1-4.75,0-7.12a34.89,34.89,0,0,1,.75-6.86C52,41,59.74,33.28,72.29,30.6,73.28,30.39,74.28,30.29,75.28,30.14ZM94.66,68.36c0-.25.06-.46.06-.67,0-2.68,0-5.36,0-8a16.83,16.83,0,0,0-5.8-12.83c-5-4.37-10.72-5.66-17-3.46a16.3,16.3,0,0,0-11.4,13.87c-.49,3.6-.19,7.31-.24,11,0,0,.07.09.12.15Zm-23,34.86c0,2,0,4,0,6a2.88,2.88,0,0,0,3.2,3.21c1.73,0,3.45,0,5.18,0,2.27,0,3.34-1.07,3.34-3.34,0-3.21,0-6.41,0-9.62A7.22,7.22,0,0,1,84.45,95a7.61,7.61,0,0,0-.75-9.26,8.49,8.49,0,0,0-8.86-2.33A8,8,0,0,0,71.14,96a2.33,2.33,0,0,1,.47,1.32C71.66,99.28,71.64,101.25,71.64,103.22Z"/></g></g></svg>