<svg xmlns="http://www.w3.org/2000/svg" viewBox="0 0 155 155"><defs><style>.cls-1{fill:none;}.cls-2{fill:#fff;}</style></defs><g id="Layer_2" data-name="Layer 2"><g id="Layer_1-2" data-name="Layer 1"><g id="Layer_2-2" data-name="Layer 2"><g id="Layer_1-2-2" data-name="Layer 1-2"><circle class="cls-1" cx="77.5" cy="77.5" r="77.5"/></g></g><g id="Layer_2-3" data-name="Layer 2"><g id="Layer_1-2-3" data-name="Layer 1-2"><path class="cls-2" d="M45.85,31.21h9.34a5.34,5.34,0,0,1,5.66,5v.07c.34,3.57.45,7.17,1,10.68a56.5,56.5,0,0,0,2,8.3A6.41,6.41,0,0,1,62,62.36c-3.6,3.45-7.05,7-10.62,10.53a1.36,1.36,0,0,0-.28,1.87A82.72,82.72,0,0,0,85.6,109.19a1.21,1.21,0,0,0,1.7-.27l0,0c3.57-3.6,7.19-7.16,10.73-10.79a6,6,0,0,1,6.4-1.75,62.22,62.22,0,0,0,18.32,2.83,5.53,5.53,0,0,1,6.15,5.63v18.8a5.33,5.33,0,0,1-5,5.67h-.7A91.24,91.24,0,0,1,54.06,98.12,88.81,88.81,0,0,1,32.23,52.76a143.34,143.34,0,0,1-1.39-15.89,5.26,5.26,0,0,1,4.84-5.66,5.61,5.61,0,0,1,.82,0Z"/></g></g></g></g></svg>