<svg xmlns="http://www.w3.org/2000/svg" viewBox="0 0 155 155"><defs><style>.cls-1{fill:none;}.cls-2{fill:#fff;}</style></defs><g id="Layer_2" data-name="Layer 2"><g id="Layer_1-2" data-name="Layer 1"><g id="Layer_2-2" data-name="Layer 2"><g id="Layer_1-2-2" data-name="Layer 1-2"><circle class="cls-1" cx="77.5" cy="77.5" r="77.5"/></g></g><g id="Layer_2-3" data-name="Layer 2"><g id="Layer_1-2-3" data-name="Layer 1-2"><path class="cls-2" d="M14.94,58.92H25v43.27h-10Z"/><path class="cls-2" d="M33,58.92H53.23c10.25,0,17.06,4.75,17.06,14.26S63.48,87.34,53.23,87.34H43v14.71H33ZM53,79.2c5.14,0,7.19-2.54,7.19-6s-2-6-7.19-6H43.2v12Z"/><path class="cls-2" d="M75.14,83.07a35.68,35.68,0,0,1,2.54-14.22A16.56,16.56,0,0,1,93.24,58c9.05,0,14,4.52,14,11.2a9.21,9.21,0,0,1-.75,3.51l-9-2.08a4.16,4.16,0,0,0,.46-2c0-1.62-1.37-3.25-4.59-3.25-4.75,0-8.27,4.2-8.89,11.69a14,14,0,0,1,9.31-3.26A14.16,14.16,0,0,1,108.93,87c0,.44,0,.88,0,1.31,0,8.4-7,14.78-16.44,14.78C82.3,103.06,75.14,95.77,75.14,83.07Zm24.45,5.41A6.85,6.85,0,0,0,93,81.4c-.24,0-.47,0-.7,0a6.77,6.77,0,0,0-7.25,6.26,5.48,5.48,0,0,0,0,.81,6.8,6.8,0,0,0,6.55,7,5.61,5.61,0,0,0,.71,0,6.84,6.84,0,0,0,7.28-6.36C99.59,88.93,99.6,88.7,99.59,88.48Z"/><path class="cls-2" d="M132.14,67.58H111.63V58.92h30.28v8.27l-15.43,35H116.39Z"/></g></g></g></g></svg>