<svg xmlns="http://www.w3.org/2000/svg" viewBox="0 0 155 155"><defs><style>.cls-1{fill:none;}.cls-2{fill:#fff;}</style></defs><g id="Layer_2" data-name="Layer 2"><g id="Layer_1-2" data-name="Layer 1"><g id="Layer_2-2" data-name="Layer 2"><g id="Layer_1-2-2" data-name="Layer 1-2"><circle class="cls-1" cx="77.5" cy="77.5" r="77.5"/></g></g><path class="cls-2" d="M45.48,125.74a8.88,8.88,0,0,1-4.39-2.37A8.05,8.05,0,0,1,39,117.63Q39,94.34,39,71q0-15.57,0-31.13c0-3.89,2.1-6.79,5.65-7.73a10.62,10.62,0,0,1,2.52-.25c2.08,0,4.16,0,6.36,0,0-1.27,0-2.44,0-3.6A6.88,6.88,0,0,1,53.68,27a1.83,1.83,0,0,1,1.83-1.45,1.75,1.75,0,0,1,1.73,1.56c.1,1.26.07,2.54.09,3.81,0,.29,0,.58.05.95H68.13V28.41a10.8,10.8,0,0,1,.06-1.27A1.82,1.82,0,0,1,70,25.5,1.73,1.73,0,0,1,71.76,27c.14,1.16.1,2.34.13,3.51,0,.43,0,.85,0,1.35h9.39V28.2A9.17,9.17,0,0,1,81.34,27a1.82,1.82,0,0,1,1.77-1.53A1.75,1.75,0,0,1,84.91,27,24.26,24.26,0,0,1,85,29.8c0,.65,0,1.3,0,2H95.36V28.16c0-1.78.64-2.68,1.88-2.67s1.87,1,1.87,2.69v3.73c1.65,0,3.21,0,4.76,0a25.38,25.38,0,0,1,5.25.34c3.37.83,5.4,3.72,5.47,7.34,0,2.19,0,4.38,0,6.56a1.3,1.3,0,0,1-.23.8c-1.54,1.59-3.12,3.15-4.69,4.72-.18.18-.38.34-.68.61,0-.44,0-.75,0-1.06V40c0-1.78-.63-2.43-2.41-2.44-2.43,0-4.87,0-7.42,0,0,1,0,1.8,0,2.64,0,1.36-.75,2.17-1.87,2.17s-1.84-.78-1.88-2.15c0-.78,0-1.56,0-2.35,0,0,0-.11-.12-.24H85c0,.89,0,1.73,0,2.57,0,1.36-.75,2.17-1.88,2.18s-1.84-.8-1.86-2.16c0-.84,0-1.68,0-2.59h-9.4c0,1,.06,2,0,2.93A1.8,1.8,0,0,1,70,42.33a1.83,1.83,0,0,1-1.8-1.92c0-.36,0-.72,0-1.08a4.14,4.14,0,0,0,0-1.17c-.07-.25-.39-.6-.61-.61-3.32,0-6.65,0-10.17,0,0,.85.06,1.65,0,2.44a2.86,2.86,0,0,1-.52,1.7,2.36,2.36,0,0,1-1.81.54,2,2,0,0,1-1.24-1.28,20,20,0,0,1-.25-3.34c-2.43,0-4.84,0-7.24,0-.93,0-1.41.72-1.54,1.62a6.29,6.29,0,0,0,0,1v77.25a4.37,4.37,0,0,0,.16,1.45c.35,1,1.18,1.19,2.14,1.19,5.38,0,10.77,0,16.15,0a4.51,4.51,0,0,1,1.91.52,5.6,5.6,0,0,0,4.63.46,20.37,20.37,0,0,1,7.78-1c9.6,0,19.19,0,28.79,0,2.18,0,2.7-.52,2.7-2.72,0-6.66,0-13.31,0-20a2.3,2.3,0,0,1,.58-1.43c1.57-1.66,3.21-3.25,5-5,0,.4.09.63.09.86q0,13,0,26c0,4.14-2.31,6.93-6.37,7.84a1.53,1.53,0,0,0-.27.11Z"/><path class="cls-2" d="M80.83,87.11H58.46A5.91,5.91,0,0,1,57.2,87a1.53,1.53,0,0,1-1.32-1.59,1.58,1.58,0,0,1,1.34-1.68,5.08,5.08,0,0,1,1.17-.07q12.63,0,25.25,0A2.06,2.06,0,0,0,85.26,83Q97.8,70.4,110.37,57.84c.27-.27.5-.6.67-.8l15.62,15.62c-.1.11-.32.37-.57.62q-17.93,17.93-35.87,35.83a7.05,7.05,0,0,1-2.62,1.59c-6,2-12.09,3.89-18.14,5.82a1.16,1.16,0,0,1-.38.11c-.57-.07-1.32,0-1.68-.3a1.89,1.89,0,0,1-.21-1.59c.83-2.82,1.74-5.6,2.63-8.4,1.08-3.38,2.11-6.78,3.28-10.13a7.79,7.79,0,0,1,1.65-2.69c2-2.11,4.09-4.12,6.14-6.17Zm.26,7.32a8.81,8.81,0,0,0,1.2-.92Q96.21,79.62,110.11,65.7c.16-.16.34-.31.48-.48a1.44,1.44,0,0,0,.07-2.1,1.41,1.41,0,0,0-2.09.13c-.15.13-.28.27-.42.41L80.27,91.55a4,4,0,0,0-.74.9C79,93.37,79.7,94.44,81.09,94.43ZM75.31,99c-.79,2.47-1.59,4.91-2.33,7.37a1.24,1.24,0,0,0,.28,1c1,1.08,2.09,2.07,3.08,3.15a1.05,1.05,0,0,0,1.29.27c1.7-.57,3.41-1.1,5.11-1.65l2-.67Z"/><path class="cls-2" d="M129.45,69.71,114,54.23l3.33-3.3c.85-.85,1.67-1.75,2.59-2.52a4,4,0,0,1,5.93.29q4.63,4.63,9.27,9.27c1.83,1.83,2,4.09.23,6S131.42,67.79,129.45,69.71Z"/><path class="cls-2" d="M75.94,71.7H58.31a6.4,6.4,0,0,1-1.07-.06A1.6,1.6,0,0,1,55.88,70a1.55,1.55,0,0,1,1.39-1.63,7.67,7.67,0,0,1,1.17-.08q17.48,0,35,0a7.67,7.67,0,0,1,1.17.08A1.59,1.59,0,0,1,96,70a1.65,1.65,0,0,1-1.45,1.7,6.34,6.34,0,0,1-1.07,0Z"/><path class="cls-2" d="M75.94,57.81H58.31a6.39,6.39,0,0,1-1.07-.05,1.7,1.7,0,0,1-1.37-1.67,1.64,1.64,0,0,1,1.4-1.63,7.58,7.58,0,0,1,1.17-.06h35a7.6,7.6,0,0,1,1.07,0A1.68,1.68,0,0,1,96,56.07a1.73,1.73,0,0,1-1.55,1.72c-.33,0-.65,0-1,0Z"/></g></g></svg>