<?xml version="1.0" encoding="UTF-8"?><svg id="Layer_2" xmlns="http://www.w3.org/2000/svg" viewBox="0 0 155 155"><defs><style>.cls-1{fill:#fff;}.cls-2{fill:none;}</style></defs><g id="Layer_2-2"><g id="Layer_2-3"><g id="Layer_1-2"><g id="Layer_2-2"><g id="Layer_1-2-2"><circle class="cls-2" cx="77.5" cy="77.5" r="77.5"/></g></g></g></g><g id="Layer_1-2-2"><g><rect x="51.61" y="116.3" width="9.75" height="9.78" rx="2.71" ry="2.71"/><path class="cls-1" d="M73.02,116.3h-4.34c-1.5,0-2.71,1.23-2.71,2.71v4.36c0,1.48,1.21,2.71,2.71,2.71h4.34c1.48,0,2.71-1.23,2.71-2.71v-4.36c0-1.48-1.23-2.71-2.71-2.71Zm0,0h-4.34c-1.5,0-2.71,1.23-2.71,2.71v4.36c0,1.48,1.21,2.71,2.71,2.71h4.34c1.48,0,2.71-1.23,2.71-2.71v-4.36c0-1.48-1.23-2.71-2.71-2.71Zm0,0h-4.34c-1.5,0-2.71,1.23-2.71,2.71v4.36c0,1.48,1.21,2.71,2.71,2.71h4.34c1.48,0,2.71-1.23,2.71-2.71v-4.36c0-1.48-1.23-2.71-2.71-2.71Zm13.72,0h-4.34c-1.5,0-2.71,1.23-2.71,2.71v4.36c0,1.48,1.21,2.71,2.71,2.71h4.34c1.5,0,2.71-1.23,2.71-2.71v-4.36c0-1.48-1.21-2.71-2.71-2.71Zm-13.72,0h-4.34c-1.5,0-2.71,1.23-2.71,2.71v4.36c0,1.48,1.21,2.71,2.71,2.71h4.34c1.48,0,2.71-1.23,2.71-2.71v-4.36c0-1.48-1.23-2.71-2.71-2.71Zm13.72,0h-4.34c-1.5,0-2.71,1.23-2.71,2.71v4.36c0,1.48,1.21,2.71,2.71,2.71h4.34c1.5,0,2.71-1.23,2.71-2.71v-4.36c0-1.48-1.21-2.71-2.71-2.71Zm-13.72,0h-4.34c-1.5,0-2.71,1.23-2.71,2.71v4.36c0,1.48,1.21,2.71,2.71,2.71h4.34c1.48,0,2.71-1.23,2.71-2.71v-4.36c0-1.48-1.23-2.71-2.71-2.71Zm13.72,0h-4.34c-1.5,0-2.71,1.23-2.71,2.71v4.36c0,1.48,1.21,2.71,2.71,2.71h4.34c1.5,0,2.71-1.23,2.71-2.71v-4.36c0-1.48-1.21-2.71-2.71-2.71Zm13.94,0h-4.34c-1.5,0-2.71,1.23-2.71,2.71v4.36c0,1.48,1.21,2.71,2.71,2.71h4.34c1.48,0,2.71-1.23,2.71-2.71v-4.36c0-1.48-1.23-2.71-2.71-2.71Zm-13.94,0h-4.34c-1.5,0-2.71,1.23-2.71,2.71v4.36c0,1.48,1.21,2.71,2.71,2.71h4.34c1.5,0,2.71-1.23,2.71-2.71v-4.36c0-1.48-1.21-2.71-2.71-2.71Zm-13.72,0h-4.34c-1.5,0-2.71,1.23-2.71,2.71v4.36c0,1.48,1.21,2.71,2.71,2.71h4.34c1.48,0,2.71-1.23,2.71-2.71v-4.36c0-1.48-1.23-2.71-2.71-2.71Zm27.69,0h-4.34c-1.5,0-2.71,1.23-2.71,2.71v4.36c0,1.48,1.21,2.71,2.71,2.71h4.34c1.48,0,2.71-1.23,2.71-2.71v-4.36c0-1.48-1.23-2.71-2.71-2.71Zm-27.69,0h-4.34c-1.5,0-2.71,1.23-2.71,2.71v4.36c0,1.48,1.21,2.71,2.71,2.71h4.34c1.48,0,2.71-1.23,2.71-2.71v-4.36c0-1.48-1.23-2.71-2.71-2.71Zm13.72,0h-4.34c-1.5,0-2.71,1.23-2.71,2.71v4.36c0,1.48,1.21,2.71,2.71,2.71h4.34c1.5,0,2.71-1.23,2.71-2.71v-4.36c0-1.48-1.21-2.71-2.71-2.71Zm13.94,0h-4.34c-1.5,0-2.71,1.23-2.71,2.71v4.36c0,1.48,1.21,2.71,2.71,2.71h4.34c1.48,0,2.71-1.23,2.71-2.71v-4.36c0-1.48-1.23-2.71-2.71-2.71Zm0,0h-4.34c-1.5,0-2.71,1.23-2.71,2.71v4.36c0,1.48,1.21,2.71,2.71,2.71h4.34c1.48,0,2.71-1.23,2.71-2.71v-4.36c0-1.48-1.23-2.71-2.71-2.71Zm-13.94,0h-4.34c-1.5,0-2.71,1.23-2.71,2.71v4.36c0,1.48,1.21,2.71,2.71,2.71h4.34c1.5,0,2.71-1.23,2.71-2.71v-4.36c0-1.48-1.21-2.71-2.71-2.71Zm-13.72,0h-4.34c-1.5,0-2.71,1.23-2.71,2.71v4.36c0,1.48,1.21,2.71,2.71,2.71h4.34c1.48,0,2.71-1.23,2.71-2.71v-4.36c0-1.48-1.23-2.71-2.71-2.71Zm28.45-66.06H53.53c-5.49,0-9.95,4.46-9.95,9.95v62.57c0,5.49,4.46,9.95,9.95,9.95h47.93c5.49,0,9.95-4.46,9.95-9.95V60.18c0-5.49-4.46-9.95-9.95-9.95Zm-49.56,24.61c0-3.3,2.68-5.96,5.96-5.96h39.24c3.3,0,5.96,2.66,5.96,5.96v30.52c0,3.3-2.66,5.96-5.96,5.96H57.89c-3.3,0-5.96-2.68-5.96-5.96v-30.52h-.02Zm10.52,48.52c0,2.07-1.7,3.77-3.77,3.77h-4.34c-2.07,0-3.77-1.7-3.77-3.77v-4.36c0-2.07,1.7-3.77,3.77-3.77h4.34c2.07,0,3.77,1.7,3.77,3.77,0,0,0,4.36,0,4.36Zm14.34,0c0,2.07-1.7,3.77-3.77,3.77h-4.34c-2.07,0-3.77-1.7-3.77-3.77v-4.36c0-2.07,1.7-3.77,3.77-3.77h4.34c2.07,0,3.77,1.7,3.77,3.77v4.36Zm13.72,0c0,2.07-1.7,3.77-3.77,3.77h-4.34c-2.07,0-3.77-1.7-3.77-3.77v-4.36c0-2.07,1.7-3.77,3.77-3.77h4.34c2.07,0,3.77,1.7,3.77,3.77v4.36Zm13.94,0c0,2.07-1.7,3.77-3.77,3.77h-4.34c-2.07,0-3.77-1.7-3.77-3.77v-4.36c0-2.07,1.7-3.77,3.77-3.77h4.34c2.07,0,3.77,1.7,3.77,3.77v4.36Zm-1.38-61.28c-1.85,0-3.37-1.5-3.37-3.37s1.5-3.37,3.37-3.37,3.37,1.5,3.37,3.37-1.5,3.37-3.37,3.37Zm-2.39,54.21h-4.34c-1.5,0-2.71,1.23-2.71,2.71v4.36c0,1.48,1.21,2.71,2.71,2.71h4.34c1.48,0,2.71-1.23,2.71-2.71v-4.36c0-1.48-1.23-2.71-2.71-2.71Zm-13.94,0h-4.34c-1.5,0-2.71,1.23-2.71,2.71v4.36c0,1.48,1.21,2.71,2.71,2.71h4.34c1.5,0,2.71-1.23,2.71-2.71v-4.36c0-1.48-1.21-2.71-2.71-2.71Zm-13.72,0h-4.34c-1.5,0-2.71,1.23-2.71,2.71v4.36c0,1.48,1.21,2.71,2.71,2.71h4.34c1.48,0,2.71-1.23,2.71-2.71v-4.36c0-1.48-1.23-2.71-2.71-2.71Zm0,0h-4.34c-1.5,0-2.71,1.23-2.71,2.71v4.36c0,1.48,1.21,2.71,2.71,2.71h4.34c1.48,0,2.71-1.23,2.71-2.71v-4.36c0-1.48-1.23-2.71-2.71-2.71Zm13.72,0h-4.34c-1.5,0-2.71,1.23-2.71,2.71v4.36c0,1.48,1.21,2.71,2.71,2.71h4.34c1.5,0,2.71-1.23,2.71-2.71v-4.36c0-1.48-1.21-2.71-2.71-2.71Zm13.94,0h-4.34c-1.5,0-2.71,1.23-2.71,2.71v4.36c0,1.48,1.21,2.71,2.71,2.71h4.34c1.48,0,2.71-1.23,2.71-2.71v-4.36c0-1.48-1.23-2.71-2.71-2.71Zm0,0h-4.34c-1.5,0-2.71,1.23-2.71,2.71v4.36c0,1.48,1.21,2.71,2.71,2.71h4.34c1.48,0,2.71-1.23,2.71-2.71v-4.36c0-1.48-1.23-2.71-2.71-2.71Zm-13.94,0h-4.34c-1.5,0-2.71,1.23-2.71,2.71v4.36c0,1.48,1.21,2.71,2.71,2.71h4.34c1.5,0,2.71-1.23,2.71-2.71v-4.36c0-1.48-1.21-2.71-2.71-2.71Zm-13.72,0h-4.34c-1.5,0-2.71,1.23-2.71,2.71v4.36c0,1.48,1.21,2.71,2.71,2.71h4.34c1.48,0,2.71-1.23,2.71-2.71v-4.36c0-1.48-1.23-2.71-2.71-2.71Zm0,0h-4.34c-1.5,0-2.71,1.23-2.71,2.71v4.36c0,1.48,1.21,2.71,2.71,2.71h4.34c1.48,0,2.71-1.23,2.71-2.71v-4.36c0-1.48-1.23-2.71-2.71-2.71Zm13.72,0h-4.34c-1.5,0-2.71,1.23-2.71,2.71v4.36c0,1.48,1.21,2.71,2.71,2.71h4.34c1.5,0,2.71-1.23,2.71-2.71v-4.36c0-1.48-1.21-2.71-2.71-2.71Zm0,0h-4.34c-1.5,0-2.71,1.23-2.71,2.71v4.36c0,1.48,1.21,2.71,2.71,2.71h4.34c1.5,0,2.71-1.23,2.71-2.71v-4.36c0-1.48-1.21-2.71-2.71-2.71Zm-13.72,0h-4.34c-1.5,0-2.71,1.23-2.71,2.71v4.36c0,1.48,1.21,2.71,2.71,2.71h4.34c1.48,0,2.71-1.23,2.71-2.71v-4.36c0-1.48-1.23-2.71-2.71-2.71Zm0,0h-4.34c-1.5,0-2.71,1.23-2.71,2.71v4.36c0,1.48,1.21,2.71,2.71,2.71h4.34c1.48,0,2.71-1.23,2.71-2.71v-4.36c0-1.48-1.23-2.71-2.71-2.71Zm0,0h-4.34c-1.5,0-2.71,1.23-2.71,2.71v4.36c0,1.48,1.21,2.71,2.71,2.71h4.34c1.48,0,2.71-1.23,2.71-2.71v-4.36c0-1.48-1.23-2.71-2.71-2.71Z"/><path class="cls-1" d="M85.04,22.3h-15.05c-4.93,0-8.92,3.99-8.92,8.92v27.91c0,4.93,3.99,8.92,8.92,8.92h15.05c4.93,0,8.92-3.99,8.92-8.92V31.22c0-4.93-3.99-8.92-8.92-8.92Zm-7.54,25.44c-6.21,0-11.23-5.05-11.23-11.23s5.02-11.26,11.23-11.26,11.26,5.05,11.26,11.26-5.05,11.23-11.26,11.23Z"/><path class="cls-1" d="M86.64,36.51c0,5.02-4.09,9.11-9.14,9.11s-9.11-4.09-9.11-9.11,4.09-9.14,9.11-9.14,9.14,4.09,9.14,9.14Z"/><rect class="cls-1" x="51.61" y="116.3" width="9.75" height="9.78" rx="2.71" ry="2.71"/><rect class="cls-1" x="65.97" y="116.3" width="9.75" height="9.78" rx="2.71" ry="2.71"/><rect class="cls-1" x="79.69" y="116.3" width="9.75" height="9.78" rx="2.71" ry="2.71"/><rect class="cls-1" x="93.63" y="116.3" width="9.75" height="9.78" rx="2.71" ry="2.71"/><g><path class="cls-1" d="M59.84,94.35l-2.07-3.62h-1.43v3.62h-1.67v-8.92h3.82c.99,0,1.75,.22,2.32,.69,.57,.44,.86,1.06,.86,1.85,0,1.26-.69,2.14-2.04,2.64l2.14,3.77h-1.92v-.02Zm-3.5-7.44v2.34h2.12c.99,0,1.5-.39,1.5-1.18s-.49-1.18-1.5-1.18h-2.12v.02Z"/><path class="cls-1" d="M63.02,94.35v-8.92h6.16v1.5h-4.48v2.04h4.11v1.5h-4.11v2.36h4.51v1.5s-6.18,0-6.18,0Z"/><path class="cls-1" d="M70.65,94.35v-8.92h1.7l3.72,5.67c.2,.34,.32,.57,.37,.69v-6.38h1.63v8.92h-1.7l-3.72-5.71c-.2-.34-.32-.57-.39-.69v6.4h-1.63l.02,.02Z"/><path class="cls-1" d="M79.22,86.98v-1.55h7.14v1.55h-2.73v7.36h-1.67v-7.36h-2.73Z"/><path class="cls-1" d="M85.21,94.35l3.6-8.92h1.6l3.6,8.92h-1.8l-.89-2.34h-3.45l-.89,2.34h-1.77Zm4.09-5.99l-.81,2.14h2.29l-.81-2.14c-.12-.3-.22-.62-.32-.96l-.32,.96h-.02Z"/><path class="cls-1" d="M94.79,94.35v-8.92h1.67v7.36h4.48v1.55h-6.16Z"/></g></g></g></g></svg>