<svg xmlns="http://www.w3.org/2000/svg" viewBox="0 0 70.1 70.1"><defs><style>.cls-1{fill:#fff;}.cls-2{fill:none;}</style></defs><g id="Layer_2" data-name="Layer 2"><g id="Layer_1-2" data-name="Layer 1"><g id="Layer_2-2" data-name="Layer 2"><g id="Layer_1-2-2" data-name="Layer 1-2"><path class="cls-1" d="M28.4,41.45q-2.2,4-4.17,8.15a57,57,0,0,0-4-4.52c-1-1-2-1.88-3-2.79a3,3,0,0,1-.79-4.16,6.56,6.56,0,0,1,2.09-2.38c.73,1,1.47,2.13,2.15,3.24l.74,1.24c.76-1.38,1.55-2.72,2.39-4A44.21,44.21,0,0,1,28.4,41.45Z"/><path class="cls-1" d="M62.44,19C48.68,30.47,38.85,44.66,32.12,61.27l-.66-1.09a93.47,93.47,0,0,0-5.55-8.38l4-8.2c.34.52.68,1,1,1.59l.74,1.24C38.74,33.61,48.82,24.32,62.44,19Z"/><path class="cls-1" d="M52.18,12.82a101.12,101.12,0,0,0-22.26,26c-.52.88-1,1.76-1.54,2.65q-2.2,4-4.16,8.15Q23,52.29,21.83,55.07L21.2,54A78.64,78.64,0,0,0,10,38.88c-1-1-2-1.89-3-2.79a3,3,0,0,1-.79-4.15,6.88,6.88,0,0,1,3.2-3,2.65,2.65,0,0,1,3.57.53,44.29,44.29,0,0,1,5.58,6.34c.73,1,1.47,2.13,2.15,3.24l.74,1.24c.76-1.38,1.55-2.72,2.39-4s1.8-2.72,2.77-4A57.38,57.38,0,0,1,52.18,12.82Z"/></g></g><g id="Layer_2-3" data-name="Layer 2"><g id="Layer_1-2-3" data-name="Layer 1-2"><g id="Layer_2-2-2" data-name="Layer 2-2"><g id="Layer_1-2-2-2" data-name="Layer 1-2-2"><circle class="cls-2" cx="35.05" cy="35.05" r="35.05"/></g></g></g></g></g></g></svg>