<?xml version="1.0" encoding="UTF-8"?>
<svg id="Layer_2" data-name="Layer 2" xmlns="http://www.w3.org/2000/svg" viewBox="0 0 155 155">
  <defs>
    <style>
      .cls-1 {
        fill: #fff;
      }

      .cls-2 {
        fill: none;
      }
    </style>
  </defs>
  <g id="Layer_1-2" data-name="Layer 1">
    <g id="Layer_2-2" data-name="Layer 2">
      <g id="Layer_1-2" data-name="Layer 1-2">
        <g id="Layer_2-2" data-name="Layer 2-2">
          <g id="Layer_1-2-2" data-name="Layer 1-2-2">
            <circle class="cls-2" cx="77.5" cy="77.5" r="77.5"/>
          </g>
        </g>
      </g>
    </g>
    <g id="Layer_1-2-2" data-name="Layer 1-2">
      <g id="Layer_1-2-3" data-name="Layer 1-2">
        <path class="cls-1" d="m37.19,44.1c-11.73,0-21.23,21.03-21.23,46.95v.99c0,.21,0,.41.01.61.07,2.14.55,4.18,1.37,6.08,3.04,7.11,10.78,12.16,19.85,12.16,3.79,0,7.36-.88,10.43-2.43,3.08-1.55,5.69-3.76,7.56-6.42,1.93-2.74,3.1-5.95,3.22-9.39v-.08c0-.17.01-.35.01-.53v-.99c0-25.92-9.51-46.95-21.23-46.95Zm0,1.15c1.89,0,3.42.78,3.42,1.74s-1.53,1.74-3.42,1.74-3.42-.78-3.42-1.74,1.53-1.74,3.42-1.74Zm-.08,59.02c-8.98,0-16.26-6.44-16.26-14.37s7.28-14.37,16.26-14.37,16.26,6.44,16.26,14.37-7.28,14.37-16.26,14.37Z"/>
      </g>
      <g id="Layer_1-2-2-2" data-name="Layer 1-2-2">
        <rect class="cls-1" x="76.34" y="80.9" width="14.68" height="1.48"/>
        <rect class="cls-1" x="76.34" y="76.54" width="25.63" height="2.57"/>
        <rect class="cls-1" x="110.68" y="64.69" width="19.16" height="29.41"/>
        <path class="cls-1" d="m134.53,55.8h-23.4c0,.56-.22,1.06-.58,1.43-.35.37-.85.59-1.39.59h-10.45c-1.09,0-1.96-.9-1.97-2.02h-23.47c-2.5,0-4.52,2.09-4.52,4.66v37.87c0,2.57,2.03,4.66,4.52,4.66h61.23c2.5,0,4.52-2.09,4.52-4.66v-37.87c0-2.58-2.03-4.66-4.52-4.66h0Zm1.16,41.16c0,1.6-1.26,2.9-2.81,2.9h-57.92c-1.55,0-2.81-1.3-2.81-2.9v-34.47c0-1.61,1.26-2.9,2.81-2.9h57.92c1.55,0,2.81,1.3,2.81,2.9,0,0,0,34.47,0,34.47Z"/>
        <path class="cls-1" d="m109.06,52.01h-10.29c-1.01,0-1.93.43-2.6,1.11-.67.69-1.08,1.63-1.08,2.68h0c0,2.1,1.65,3.79,3.67,3.79h10.29c1.02,0,1.93-.43,2.6-1.11s1.07-1.63,1.07-2.67h0c0-2.1-1.65-3.79-3.67-3.79h0Zm1.49,5.22c-.35.37-.85.59-1.39.59h-10.45c-1.09,0-1.96-.9-1.97-2.02h0c0-.57.22-1.07.57-1.43.36-.37.85-.59,1.39-.59h10.45c1.09,0,1.97.91,1.97,2.02h0c0,.57-.22,1.07-.58,1.43Z"/>
        <rect class="cls-1" x="76.34" y="80.9" width="14.68" height="1.48"/>
        <rect class="cls-1" x="76.34" y="76.54" width="25.63" height="2.57"/>
        <rect class="cls-1" x="110.68" y="64.69" width="19.16" height="29.41"/>
        <rect class="cls-1" x="110.68" y="64.69" width="19.16" height="29.41"/>
        <rect class="cls-1" x="76.34" y="76.54" width="25.63" height="2.57"/>
        <rect class="cls-1" x="76.34" y="80.9" width="14.68" height="1.48"/>
      </g>
    </g>
  </g>
</svg>