<svg xmlns="http://www.w3.org/2000/svg" viewBox="0 0 155 155"><defs><style>.cls-1{fill:none;}.cls-2{fill:#fff;}</style></defs><g id="Layer_2" data-name="Layer 2"><g id="Layer_1-2" data-name="Layer 1"><g id="Layer_2-2" data-name="Layer 2"><g id="Layer_1-2-2" data-name="Layer 1-2"><circle class="cls-1" cx="77.5" cy="77.5" r="77.5"/></g></g><g id="Layer_2-3" data-name="Layer 2"><g id="Layer_1-2-3" data-name="Layer 1-2"><path class="cls-2" d="M32.07,61h7.17L52.69,94H44.38l-3-8H29.91l-3,8H18.65Zm7,18.53-2-5.38s-.77-1.93-1.36-3.92c-.62,2-1.37,3.92-1.37,3.92l-2,5.38Z"/><path class="cls-2" d="M58.05,67.7H48.42V61h27v6.7H65.79V94H58.05Z"/><path class="cls-2" d="M79.19,61h24.06v6.7H86.8v6h15.14v6.5H86.8V87.3h16.6V94H79.19Z"/><path class="cls-2" d="M116.88,76.36,107.27,61h8.54l5.36,9,5.75-9H135l-9.43,15.14L136.35,94h-8.53l-6.65-11.22L114.67,94h-8.76Z"/></g></g></g></g></svg>