<?xml version="1.0" encoding="UTF-8"?>
<svg id="Layer_2" data-name="Layer 2" xmlns="http://www.w3.org/2000/svg" viewBox="0 0 155 155">
  <defs>
    <style>
      .cls-1 {
        fill: none;
      }

      .cls-1, .cls-2 {
        stroke-width: 0px;
      }

      .cls-2 {
        fill: #fff;
      }
    </style>
  </defs>
  <g id="Layer_1-2" data-name="Layer 1">
    <g id="Layer_2-2" data-name="Layer 2-2">
      <g id="Layer_1-2-2" data-name="Layer 1-2-2">
        <circle class="cls-1" cx="77.5" cy="77.5" r="77.5"/>
      </g>
    </g>
    <g id="Layer_1-2" data-name="Layer 1-2">
      <g id="AiHG6R.tif">
        <path class="cls-2" d="m55.18,25.66c.47.09.93.24,1.41.27,11.95.83,21.41,10.85,21.47,22.81.05,9.75.08,19.51-.01,29.26-.11,12.15-9.34,21.92-21.51,22.91-11.56.94-22.21-7.34-24.35-18.97-.26-1.41-.36-2.86-.36-4.3-.03-9.3-.02-18.6-.02-27.9.01-13.12,9-22.84,22.08-23.88.27-.02.53-.13.81-.21h.49Z"/>
        <path class="cls-2" d="m18.91,77.53c.52-1.95,1.42-3.52,3.71-3.67,2.32-.15,4.07,1.36,4.16,3.73.12,3.32.55,6.57,1.77,9.67,3.97,10.15,11.3,16.39,22.02,18.15,14.89,2.44,28.7-7.22,31.87-22.04.41-1.92.44-3.92.63-5.88.23-2.3,1.88-3.77,4.15-3.63,2.09.12,3.64,1.86,3.6,4.09-.15,8.45-2.83,16.02-8.2,22.53-5.83,7.07-13.33,11.35-22.43,12.73-.4.06-.81.13-1.29.21v15.94h1.34c2.55,0,5.1-.05,7.65.03,2.23.06,3.81,1.75,3.79,3.9-.02,2.14-1.62,3.83-3.85,3.84-8.59.04-17.19.04-25.78,0-2.31-.01-3.91-1.71-3.9-3.92,0-2.17,1.65-3.78,3.99-3.83,2.46-.05,4.93-.01,7.4-.02h1.39c.04-.45.1-.77.1-1.09,0-4.61-.02-9.22.02-13.83,0-.86-.3-1.08-1.1-1.2-11.79-1.8-20.61-8.01-26.49-18.32-2.6-4.55-4-9.54-4.31-14.8-.04-.69-.16-1.38-.24-2.06v-.49Z"/>
      </g>
      <g id="yhiXR5">
        <path class="cls-2" d="m94.46,60.06c-1.81,0-3.37.03-4.94,0-3.2-.06-5.36-2.18-5.37-5.4-.04-7.56-.04-15.13,0-22.69.02-3.44,2.11-5.47,5.55-5.48,13.51-.01,27.02-.01,40.53,0,3.3,0,5.49,2.08,5.52,5.4.05,7.56.05,15.13,0,22.69-.02,3.36-2.23,5.47-5.61,5.48-7.22.02-14.45.03-21.67-.02-1.07,0-1.82.28-2.56,1.07-2.75,2.95-5.57,5.82-8.37,8.71-.27.28-.55.56-.87.79-1.13.79-2.04.43-2.13-.96-.12-1.91-.07-3.83-.08-5.74-.01-1.22,0-2.44,0-3.86h0Zm5.13-16.8c0-2.13-1.68-3.81-3.81-3.82-2.15-.01-3.84,1.64-3.87,3.76-.03,2.18,1.71,3.94,3.88,3.92,2.1-.02,3.8-1.75,3.8-3.86h0Zm14.17.07c.03-2.14-1.61-3.84-3.74-3.89-2.15-.05-3.88,1.58-3.94,3.69-.07,2.17,1.66,3.97,3.81,3.98,2.11.01,3.83-1.67,3.86-3.78h0Zm10.41-3.89c-2.13-.03-3.86,1.62-3.92,3.72-.06,2.14,1.71,3.95,3.87,3.95,2.12,0,3.8-1.68,3.81-3.82.02-2.17-1.6-3.82-3.75-3.86h0Z"/>
      </g>
    </g>
  </g>
</svg>