<?xml version="1.0" encoding="UTF-8"?>
<svg id="Layer_2" data-name="Layer 2" xmlns="http://www.w3.org/2000/svg" viewBox="0 0 155 155">
  <defs>
    <style>
      .cls-1 {
        fill: #fff;
      }

      .cls-2 {
        fill: none;
      }
    </style>
  </defs>
  <g id="Layer_1-2" data-name="Layer 1">
    <g id="Layer_2-2" data-name="Layer 2">
      <g id="Layer_1-2" data-name="Layer 1-2">
        <g id="Layer_2-2" data-name="Layer 2-2">
          <g id="Layer_1-2-2" data-name="Layer 1-2-2">
            <circle class="cls-2" cx="77.5" cy="77.5" r="77.5"/>
          </g>
        </g>
      </g>
    </g>
    <g id="Layer_1-2-2" data-name="Layer 1-2">
      <path class="cls-1" d="m59.25,32.99c.07-.62.2-1.24.2-1.86-.05-5.97,2.4-11.02,5.67-15.8,1.34-1.96,3.01-2.93,5.53-2.46,3.62.69,7.28.81,11.12-.04-1.01,3.59-1.64,7.03-5.38,8.8-1.27.61-2.31,1.89-3.17,3.08-1,1.37-1,2.97-.08,4.6.57-.25,1.16-.43,1.68-.73,3.32-1.89,6.92-1.98,10.58-1.74,1.06.07,2.13.1,3.17.26,2.26.36,3.27,1.56,2.79,3.8-.43,1.95-1.13,3.9-2.03,5.69-1.47,2.92-3.35,5.64-4.76,8.58-.8,1.66-1.07,3.59-1.46,5.43-.17.81.26,1.45,1.21,1.54.04,0,.08.04.13.04,4.45.48,7.23,3.09,9.08,7,1.19,2.52,2.47,4.94,3.01,7.74.47,2.46,2.26,4.36,4.36,5.47,3.54,1.85,5.11,4.91,6.44,8.37.7,1.83,1.92,3.45,2.73,5.25.55,1.23,1.1,2.58,1.15,3.89.07,2.24-.16,4.49-.43,6.72-.24,1.97.48,2.81,2.43,2.4,1.51-.31,2.97-.93,4.49-1.12,3.41-.43,6.56.15,8.86,3.02,1.67,2.07,1.79,4.28.35,6.51-1.32,2.04-2.67,4.03-4.52,5.67-2.19,1.95-4.13,4.14-5.38,6.86-.88,1.91-.42,2.9,1.65,2.88,2.19-.02,4.38-.47,6.57-.73.73-.08,1.47-.13,2.54-.23-.4.91-.55,1.63-.97,2.13-2.1,2.45-4.16,4.95-6.48,7.18-.85.82-2.37,1.29-3.6,1.34-3.18.14-6.38.03-9.57-.09-5.91-.22-11.76.25-17.61,1.07-3.59.5-7.21.79-10.82,1.21-.91.1-1.85.25-2.72.55-1.29.44-1.6,1.27-1,2.5.37.75.88,1.43,1.3,2.16.59,1.06.38,1.48-.85,1.46-1.68-.04-3.39-.04-5.02-.37-3.78-.77-7.47-.49-11.16.49-1.06.28-2.17.42-3.25.66-.83.18-1.29-.22-1.13-.96.18-.88.38-1.96.98-2.49,1.64-1.44,3.35-2.97,5.31-3.87,2.66-1.22,4.63-2.95,5.8-5.54.98-2.17,2.58-3.36,4.83-3.92,2.49-.61,4.94-1.33,7.34-1.99-2.1-.56-4.31-1.07-6.45-1.77-1.29-.42-2.55-1.03-3.69-1.77-1.85-1.2-3.78-1.53-5.94-1.31-.98.1-2.01-.25-3.02-.4.32-.97.39-2.15,1-2.85,1.44-1.65,3.02-3.25,4.78-4.54,1.76-1.28,3.17-2.7,3.74-4.8.57-2.08,1.16-4.17,1.47-6.29.26-1.77-.69-3.1-2.37-3.71-1.13-.42-1.91-.88-1.48-2.28.57-1.85,1.84-3.02,3.24-2.69,1.84.43,3.64,1.08,5.48,1.53,1.28.31,2.59.58,3.9.66,1.23.07,1.4-.42,1.11-1.56-.23-.89-.31-1.87-.2-2.78.15-1.27.51-2.51.83-3.74.55-2.13-.19-3.7-1.93-4.93-2.34-1.65-3.84-3.89-4.41-6.71-.14-.69-.23-1.4-.26-2.1-.04-1.09-.43-1.47-1.58-1.16-2.43.65-4.9,1.14-7.34,1.77-1.03.27-1.42-.07-1.42-1.05,0-1.5,0-3.01.04-4.51.07-2.02-1.2-3.26-3.25-3.11-2.34.17-3.24-.41-3.31-2.76-.07-2.77.1-5.56.4-8.31.13-1.26-.12-1.98-1.16-2.63-3.65-2.29-3.71-2.56-2.29-6.61,1.07-3.04.52-5.78-1.65-8.21-.97-1.09-2-2.14-3.06-3.14-.97-.91-.98-1.83-.22-2.81.38-.49.85-.89,1.29-1.33.94-.94,1.95-.9,2.79.01,1.1,1.2,2.07,2.53,3.1,3.8.49.6.98,1.18,1.47,1.78.14-.04.28-.08.43-.12h.02Z"/>
      <path class="cls-1" d="m27.09,79.9c0-1.58.67-2.9,1.89-3.79,2.97-2.19,4.8-5.18,6.03-8.54.8-2.18,2.28-3.08,4.48-3.24,4.28-.32,8.18.77,11.6,3.28.86.63,1.5,1.72,1.93,2.74,1,2.4,1.78,4.89,2.7,7.32.58,1.51.33,2.74-.94,3.78-.82.67-1.59,1.41-2.34,2.16-1.64,1.64-3.54,1.89-5.61,1.04-.94-.38-1.86-.84-2.69-1.42-1.4-.99-2.66-.98-3.95.15-2.61,2.28-5.68,2.45-8.88,1.8-3.14-.65-4.21-2.04-4.22-5.28Z"/>
    </g>
  </g>
</svg>