<?xml version="1.0" encoding="UTF-8"?>
<svg id="Layer_2" data-name="Layer 2" xmlns="http://www.w3.org/2000/svg" viewBox="0 0 155 155">
  <defs>
    <style>
      .cls-1 {
        fill: none;
      }

      .cls-1, .cls-2 {
        stroke-width: 0px;
      }

      .cls-2 {
        fill: #fff;
      }
    </style>
  </defs>
  <g id="Layer_1-2" data-name="Layer 1">
    <g id="Layer_1-2" data-name="Layer 1-2">
      <g id="_7tM3xH" data-name=" 7tM3xH">
        <path class="cls-2" d="m20.92,48.19c-.79-6.18,2.32-9.1,7.67-11.37,15.09-6.41,30.01-13.23,44.95-19.98,2.74-1.24,5.24-1.32,7.97-.09,15.77,7.05,31.55,14.1,47.4,20.99,3.78,1.64,5.46,4.07,5.29,8.2-1.22,29.84-10.29,56.45-32.53,77.31-5.77,5.41-12.78,9.51-19.22,14.2-3.15,2.29-6.18,2.1-9.58.16-26.65-15.13-42.39-38.11-48.74-67.75-1.53-7.13-2.17-14.45-3.22-21.68h0Zm49.92,49.87c11.87-11.85,23.68-23.65,35.1-35.06-2.46-2.5-5.24-5.33-8.53-8.68-8.6,8.8-17.35,17.74-26.49,27.1-4.74-4.89-9.29-9.58-13.51-13.93-2.96,2.91-5.83,5.73-8.64,8.5,7.35,7.35,14.89,14.88,22.08,22.07h0Z"/>
      </g>
    </g>
    <g id="Layer_2-2" data-name="Layer 2-2">
      <g id="Layer_1-2-2" data-name="Layer 1-2-2">
        <circle class="cls-1" cx="77.5" cy="77.5" r="77.5"/>
      </g>
    </g>
  </g>
</svg>