<svg xmlns="http://www.w3.org/2000/svg" viewBox="0 0 70.1 70.1"><defs><style>.cls-1{fill:#fff;}.cls-2{fill:none;}</style></defs><g id="Layer_2" data-name="Layer 2"><g id="Layer_1-2" data-name="Layer 1"><g id="Layer_2-2" data-name="Layer 2"><g id="Layer_1-2-2" data-name="Layer 1-2"><path class="cls-1" d="M8.68,18.12V52H61.42V18.12Zm50.1,31.23H46.35a.67.67,0,0,0,.3-.71,12,12,0,0,0-.21-1.9,9.92,9.92,0,0,0-8.6-7.9,39.54,39.54,0,0,0-4.49-.1,10,10,0,0,0-9.89,9.45c-.05.69,0,1,.28,1.16H11.31V20.75H58.78Z"/><path class="cls-1" d="M35,37.86a6.64,6.64,0,1,0-6.6-6.68h0A6.63,6.63,0,0,0,35,37.86Z"/></g></g><g id="Layer_2-3" data-name="Layer 2"><g id="Layer_1-2-3" data-name="Layer 1-2"><g id="Layer_2-2-2" data-name="Layer 2-2"><g id="Layer_1-2-2-2" data-name="Layer 1-2-2"><circle class="cls-2" cx="35.05" cy="35.05" r="35.05"/></g></g></g></g></g></g></svg>