<svg xmlns="http://www.w3.org/2000/svg" viewBox="0 0 70.1 70.1"><defs><style>.cls-1{fill:none;}.cls-2{fill:#fff;}</style></defs><g id="Layer_2" data-name="Layer 2"><g id="Layer_1-2" data-name="Layer 1"><g id="Layer_2-2" data-name="Layer 2"><g id="Layer_1-2-2" data-name="Layer 1-2"><g id="Layer_2-2-2" data-name="Layer 2-2"><g id="Layer_1-2-2-2" data-name="Layer 1-2-2"><circle class="cls-1" cx="35.05" cy="35.05" r="35.05"/></g></g></g></g><path class="cls-2" d="M62.73,28.19l-3,3a1.43,1.43,0,0,1-2,0,33.69,33.69,0,0,0-45.42,0,1.43,1.43,0,0,1-2,0l-3-3a1.41,1.41,0,0,1,0-2,40.83,40.83,0,0,1,55.31,0A1.39,1.39,0,0,1,62.73,28.19Zm-9.84,10-3,3a1.44,1.44,0,0,1-1.94.07,19.76,19.76,0,0,0-25.77,0,1.44,1.44,0,0,1-1.93-.07l-3-3a1.39,1.39,0,0,1,.05-2,27,27,0,0,1,35.59,0A1.38,1.38,0,0,1,52.89,38.17ZM40.67,49.1a5.62,5.62,0,1,1-5.62-5.62A5.62,5.62,0,0,1,40.67,49.1Z"/></g></g></svg>