<?xml version="1.0" encoding="UTF-8"?>
<svg id="Layer_2" data-name="Layer 2" xmlns="http://www.w3.org/2000/svg" viewBox="0 0 155 155">
  <defs>
    <style>
      .cls-1 {
        fill: none;
      }

      .cls-1, .cls-2 {
        stroke-width: 0px;
      }

      .cls-2 {
        fill: #fff;
      }
    </style>
  </defs>
  <g id="Layer_1-2" data-name="Layer 1">
    <g id="Layer_2-2" data-name="Layer 2-2">
      <g id="Layer_1-2-2" data-name="Layer 1-2-2">
        <circle class="cls-1" cx="77.5" cy="77.5" r="77.5"/>
      </g>
    </g>
    <g id="Layer_1-2" data-name="Layer 1-2">
      <path class="cls-2" d="m129.87,89.15c.29-.14.69-.01,1.05-.03,4.78-.17,8.03-3.08,8.25-7.37.23-4.3-3.11-7.81-7.91-8.19-1.75-.13-3.55.16-5.26-.13-.96-.16-1.78-1.12-2.66-1.71.84-.81,1.57-1.8,2.55-2.37.62-.36,1.61-.08,2.43-.09,5.03-.09,8.21-2.97,8.31-7.54.09-4.49-3.13-7.78-7.97-8.05-1.52-.08-3.11.23-4.56-.1-1.12-.26-2.06-1.25-3.08-1.92,1.06-.76,2.05-1.7,3.23-2.21.79-.35,1.86-.02,2.79-.11,3.74-.38,6.47-2.92,7.2-6.65.62-3.16-.83-5.62-4.61-7.37-1.8-.83-3.67-1.67-5.6-2.02-17.85-3.25-35.4-3.13-52.37,4.46-3.28,1.47-6.84,2.46-10.38,3.16-6.24,1.22-12.55,2.04-18.89,3.03.08,2.06.86,3.52,3.45,4.12,3.08.71,4.61,3.25,4.64,6.31.09,11.38.08,22.76,0,34.14-.02,3.09-1.56,5.75-4.58,6.35-2.73.55-3.33,2-3.6,4.91,5.72-.04,9.41,3.6,13.27,7.32,3.77,3.63,7.78,7.25,12.27,9.84,16.52,9.54,34.05,8.82,51.72,3.89,2.97-.83,5.18-3.11,6.02-7.4-5.63,0-10.75-.02-15.88,0-4.87.03-9.88-.76-14.17,2.68-.5.4-2.45-.03-2.69-.55-.37-.79-.14-2.26.42-2.97.76-.95,2-1.82,3.17-2.07,3.52-.74,7.1-1.56,10.68-1.64,7.74-.18,15.48.16,23.23.15,5.5-.01,8.88-3.47,8.54-8.47-.31-4.55-3.33-6.89-9.13-7.1-1.71-.06-4.08.3-3.88-2.19.07-.83,2.6-1.49,4.02-2.17l-.02.03Z"/>
      <path class="cls-2" d="m42.53,90.83c2.39.01,3.33-1,3.29-3.4-.11-5.39-.03-10.78-.03-16.17s-.07-10.55.03-15.82c.04-2.39-.83-3.36-3.28-3.35-9.38.08-18.75.08-28.12,0-2.44-.02-3.31.91-3.29,3.33.08,10.66.08,21.33,0,31.99-.02,2.39.88,3.43,3.28,3.42,9.38-.04,18.75-.04,28.12,0h0Z"/>
      <path class="cls-2" d="m21.4,104.28c4.4,0,8.49.06,12.57-.05.76-.02,1.95-.55,2.16-1.13.9-2.47,1.51-5.05,2.27-7.74h-19.55c.86,3.02,1.66,5.8,2.55,8.93h0Z"/>
      <path class="cls-2" d="m36.28,40.23c-.23-.62-1.33-1.29-2.05-1.31-4.29-.12-8.59-.06-12.88-.06-.85,2.93-1.61,5.58-2.46,8.49h19.44c-.71-2.54-1.24-4.88-2.06-7.12h0Z"/>
    </g>
  </g>
</svg>