<?xml version="1.0" encoding="UTF-8"?>
<svg id="Layer_2" data-name="Layer 2" xmlns="http://www.w3.org/2000/svg" viewBox="0 0 155 155">
  <defs>
    <style>
      .cls-1 {
        fill: #fff;
      }

      .cls-2 {
        fill: none;
      }
    </style>
  </defs>
  <g id="Layer_1-2" data-name="Layer 1">
    <g id="Layer_2-2" data-name="Layer 2">
      <g id="Layer_1-2" data-name="Layer 1-2">
        <g id="Layer_2-2" data-name="Layer 2-2">
          <g id="Layer_1-2-2" data-name="Layer 1-2-2">
            <circle class="cls-2" cx="77.5" cy="77.5" r="77.5"/>
          </g>
        </g>
      </g>
    </g>
    <g id="Layer_1-2-2" data-name="Layer 1-2">
      <path class="cls-1" d="m76.35,19.28h2.34c1.16.89,2.38,1.7,3.46,2.67,4.64,4.17,9.78,7.56,15.55,9.98,8.02,3.36,16.44,4.61,25.07,4.67,3.15.02,4.87,1.58,4.9,4.67.07,12.15.76,24.31-.53,36.45-.74,6.94-1.99,13.77-4.3,20.37-3.36,9.58-8.64,17.9-16.13,24.81-7.98,7.36-17.41,12.21-27.54,15.82-1.19.42-2.34.33-3.53-.1-6.73-2.39-13.18-5.36-19.15-9.32-11.42-7.56-19.48-17.76-24.11-30.67-3.45-9.58-4.84-19.54-5.08-29.64-.21-9.23,0-18.47.08-27.71.03-3.05,1.73-4.51,4.76-4.7,4.46-.28,8.96-.48,13.35-1.21,9.64-1.59,18.23-5.62,25.7-11.96,1.67-1.42,3.42-2.76,5.14-4.13Zm-4.84,63.37c-3.52-3.9-6.98-7.73-10.47-11.59-2.18,1.94-4.24,3.78-6.35,5.65.27.32.48.59.71.85,4.01,4.46,8.03,8.92,12.05,13.36,2.33,2.57,4.69,2.65,7.25.24,7.95-7.47,15.9-14.95,23.84-22.42.64-.61,1.29-1.23,1.99-1.9-1.96-2.1-3.87-4.15-5.83-6.26-7.73,7.35-15.41,14.64-23.19,22.05h0Z"/>
    </g>
  </g>
</svg>