<?xml version="1.0" encoding="UTF-8"?>
<svg id="Layer_2" data-name="Layer 2" xmlns="http://www.w3.org/2000/svg" viewBox="0 0 155 155">
  <defs>
    <style>
      .cls-1 {
        fill: #fff;
      }

      .cls-2 {
        fill: none;
      }
    </style>
  </defs>
  <g id="Layer_1-2" data-name="Layer 1">
    <g id="Layer_2-2" data-name="Layer 2">
      <g id="Layer_1-2" data-name="Layer 1-2">
        <g id="Layer_2-2" data-name="Layer 2-2">
          <g id="Layer_1-2-2" data-name="Layer 1-2-2">
            <circle class="cls-2" cx="77.5" cy="77.5" r="77.5"/>
          </g>
        </g>
      </g>
    </g>
    <g id="Layer_1-2-2" data-name="Layer 1-2">
      <path class="cls-1" d="m127.91,117.01c-.56,2.27-1.5,4.3-3.39,5.81-1.56,1.24-3.33,1.92-5.32,2.05-.26.02-.53.01-.79.01H36.65c-3.94,0-6.85-1.75-8.62-5.27-.43-.86-.73-1.85-.81-2.8-.5-6.13.23-11.98,4.2-17.01,1.89-2.4,4.16-4.38,6.88-5.76,6.13-3.13,12.51-5.65,19.15-7.5,1.72-.48,2.74.06,3.36,1.76,2.95,8.18,5.88,16.36,8.82,24.55.09.24.18.49.38,1.03.31-1.45.57-2.63.81-3.81.64-3.21,1.3-6.41,1.89-9.62.09-.48-.02-1.04-.18-1.52-1.28-3.91-2.52-7.84-3.92-11.7-.72-1.98.38-3.65,2.64-3.62,4.17.06,8.33.07,12.5,0,2.28-.04,3.44,1.61,2.69,3.66-1.36,3.74-2.49,7.57-3.83,11.32-.42,1.19-.19,2.23.03,3.34.74,3.72,1.47,7.44,2.22,11.16.03.18.14.35.27.67,1.24-3.48,2.45-6.82,3.65-10.18,1.8-5.02,3.59-10.03,5.39-15.04.74-2.04,1.68-2.49,3.78-1.91,6.38,1.79,12.53,4.18,18.42,7.21,6.43,3.31,10.25,8.58,11.39,15.75.03.19.12.36.18.54v6.89h.01Z"/>
      <path class="cls-1" d="m80.09,24.12c1.24.25,2.5.44,3.74.75,8.76,2.18,15.14,7.37,18.8,15.59,3.71,8.36,3.25,16.71-1.22,24.72-3.43,6.14-8.59,10.38-15.29,12.51-8.76,2.78-17.03,1.55-24.56-3.75-5.76-4.05-9.4-9.63-10.87-16.49-1.63-7.63-.27-14.8,4.12-21.27,4.2-6.19,10.05-10,17.38-11.55.92-.19,1.86-.34,2.79-.51h5.12Z"/>
    </g>
  </g>
</svg>