<svg xmlns="http://www.w3.org/2000/svg" viewBox="0 0 155 155"><defs><style>.cls-1{fill:none;}.cls-2{fill:#fff;}</style></defs><g id="Layer_2" data-name="Layer 2"><g id="Layer_1-2" data-name="Layer 1"><g id="Layer_2-2" data-name="Layer 2"><g id="Layer_1-2-2" data-name="Layer 1-2"><circle class="cls-1" cx="77.5" cy="77.5" r="77.5"/></g></g><g id="Layer_2-3" data-name="Layer 2"><g id="Layer_1-2-3" data-name="Layer 1-2"><path class="cls-2" d="M75.94,108.66l35.77-36.13,14,14-35.6,36Z"/><path class="cls-2" d="M129.49,82.58l-14-14a2.07,2.07,0,0,1,.26-.33c2.37-2.37,4.57-4.73,6.93-6.91a9.86,9.86,0,0,1,13.94.1,9.45,9.45,0,0,1,.67.75,10,10,0,0,1-.19,12.7l-.64.66Z"/><path class="cls-2" d="M73.53,112.72l13.26,13-20.52,6.71Z"/><path class="cls-2" d="M70.76,53.75a6,6,0,0,0-6-5.84H26.26a6,6,0,0,0-6,5.84v49.42a6,6,0,0,0,6,6H64.73a6,6,0,0,0,6-6ZM46.24,60.42a8,8,0,1,1-8,8h0A8,8,0,0,1,46.24,60.42Z"/><path class="cls-2" d="M45.51,28.08A25.24,25.24,0,0,0,20.24,53.31v.44a25.27,25.27,0,0,0,50.52,0v-.4A25.25,25.25,0,0,0,45.53,28.08ZM31.58,35.53c.48-.36,13.74-7.88,27.05-.36a1.16,1.16,0,1,1-1.16,2h0c-12.1-6.74-24.56.35-24.7.35a1.06,1.06,0,0,1-.57.17A1.19,1.19,0,0,1,31,36.49,1.17,1.17,0,0,1,31.58,35.53ZM46.24,76.36a8,8,0,1,1,8-8,8,8,0,0,1-8,8Z"/></g></g></g></g></svg>