<svg xmlns="http://www.w3.org/2000/svg" viewBox="0 0 155 155"><defs><style>.cls-1{fill:none;}.cls-2{fill:#fff;}</style></defs><g id="Layer_2" data-name="Layer 2"><g id="Layer_1-2" data-name="Layer 1"><g id="Layer_2-2" data-name="Layer 2"><g id="Layer_1-2-2" data-name="Layer 1-2"><circle class="cls-1" cx="77.5" cy="77.5" r="77.5"/></g></g><g id="Layer_2-3" data-name="Layer 2"><g id="Layer_1-2-3" data-name="Layer 1-2"><path class="cls-2" d="M143,81.26v0a16.24,16.24,0,0,1-15.35,16.26A49.72,49.72,0,0,1,106.68,124v.45a6.15,6.15,0,0,1-5.93,5.33,5.91,5.91,0,0,1-3.84-1.47A6.27,6.27,0,0,1,95,125.17a3.76,3.76,0,0,1-.15-1.33,5.93,5.93,0,0,1,5.9-5.91,5.53,5.53,0,0,1,3.71,1.33,45.47,45.47,0,0,0,17.86-22.13,47.44,47.44,0,0,0,2.8-15.87,46.12,46.12,0,0,0-2.8-15.81,45.23,45.23,0,0,0-84.88,0,43.17,43.17,0,0,0-2.8,15.86,44.27,44.27,0,0,0,2.8,15.82,21.89,21.89,0,0,1-4.27.54c-.45,0-.74-.15-1.19-.15A16.19,16.19,0,0,1,16.79,81.36v-.1a16.42,16.42,0,0,1,15.42-16.4,50.56,50.56,0,0,1,95.64,0h-.22A16.45,16.45,0,0,1,143,81.26Z"/><path class="cls-2" d="M79.8,116.8h0a35.1,35.1,0,1,0-35-35.22v.13A35.12,35.12,0,0,0,79.8,116.8Z"/></g></g></g></g></svg>