<svg xmlns="http://www.w3.org/2000/svg" viewBox="0 0 155 155"><defs><style>.cls-1{fill:none;}.cls-2{fill:#fff;}</style></defs><g id="Layer_2" data-name="Layer 2"><g id="Layer_1-2" data-name="Layer 1"><g id="Layer_2-2" data-name="Layer 2"><g id="Layer_1-2-2" data-name="Layer 1-2"><circle class="cls-1" cx="77.5" cy="77.5" r="77.5"/></g></g><g id="Layer_2-3" data-name="Layer 2"><g id="Layer_1-2-3" data-name="Layer 1-2"><path class="cls-2" d="M73.35,18.82c-32.22,0-55.6,27.37-54.84,54.9h6.72C25.49,47,48.29,25.39,73.35,25.6Zm0,13.79c-24.41-.13-41.86,21-41,41.08h6.49c2.26-20.77,13.72-32.33,34.57-34.48ZM52.81,73.72A20.77,20.77,0,0,1,73.35,53.21V46.38A27.29,27.29,0,0,0,46,73.64v.08Z"/><path class="cls-2" d="M73.4,128.8a27.94,27.94,0,0,1,4.24-14.6,43.79,43.79,0,0,1-31.74-13l9.53-9.56,9.64-9.6A12,12,0,0,1,81.69,65.31L100.8,46.19c13,12.16,19.4,36.75,3.82,55.21,1.3.29,2.59.55,3.81.88a27.57,27.57,0,0,1,19.77,23,3.38,3.38,0,0,0,.23.7v2.78Z"/><path class="cls-2" d="M73.35,18.82V25.6C48.29,25.39,25.49,47,25.23,73.72H18.51C17.75,46.19,41.13,18.82,73.35,18.82Z"/><path class="cls-2" d="M73.38,32.61v6.6Q42.21,42.44,38.81,73.69H32.32C31.49,53.57,48.94,32.48,73.38,32.61Z"/><path class="cls-2" d="M52.81,73.72H46A27.29,27.29,0,0,1,73.27,46.38h.08v6.83A20.77,20.77,0,0,0,52.81,73.72Z"/></g></g></g></g></svg>