<svg xmlns="http://www.w3.org/2000/svg" viewBox="0 0 155 155"><defs><style>.cls-1{fill:none;}.cls-2{fill:#fff;}</style></defs><g id="Layer_2" data-name="Layer 2"><g id="Layer_1-2" data-name="Layer 1"><g id="Layer_2-2" data-name="Layer 2"><g id="Layer_1-2-2" data-name="Layer 1-2"><circle class="cls-1" cx="77.5" cy="77.5" r="77.5"/></g></g><g id="Layer_2-3" data-name="Layer 2"><g id="Layer_1-2-3" data-name="Layer 1-2"><path class="cls-2" d="M14.94,58.83h9.92v42.81H14.94Z"/><path class="cls-2" d="M32.82,58.83h20c10.15,0,16.88,4.7,16.88,14.11S63,87,52.82,87H42.74v14.56H32.82ZM52.57,78.9c5.09,0,7.12-2.52,7.12-6S57.66,67,52.57,67H42.9V78.9Z"/><path class="cls-2" d="M74.5,82.73A35.49,35.49,0,0,1,77,68.65,16.39,16.39,0,0,1,92.41,58c9,0,13.85,4.47,13.85,11.08a9.24,9.24,0,0,1-.74,3.48l-8.89-2.06a4.1,4.1,0,0,0,.45-2c0-1.61-1.35-3.22-4.54-3.22-4.7,0-8.18,4.16-8.79,11.56A13.93,13.93,0,0,1,93,73.61a14,14,0,0,1,15,13q0,.64,0,1.29c0,8.31-6.92,14.63-16.27,14.63C81.59,102.51,74.5,95.29,74.5,82.73Zm24.19,5.35a6.76,6.76,0,0,0-6.52-7c-.23,0-.46,0-.69,0a6.7,6.7,0,0,0-7.17,6.19,5.33,5.33,0,0,0,0,.8,6.73,6.73,0,0,0,6.48,7c.23,0,.47,0,.7,0a6.75,6.75,0,0,0,7.2-6.29A4.85,4.85,0,0,0,98.69,88.08Z"/><path class="cls-2" d="M112.74,89.4a12,12,0,0,1,7.12-10.7,10.63,10.63,0,0,1-5.77-9.37c0-6.44,5.8-11.37,14.69-11.37s14.69,4.83,14.69,11.37a10.63,10.63,0,0,1-5.77,9.37,12,12,0,0,1,7.12,10.7c0,7.92-6.12,13.11-16.1,13.11S112.74,97.32,112.74,89.4Zm22.35-.71A6.44,6.44,0,1,0,128,94.38a5,5,0,0,0,.67,0,5.83,5.83,0,0,0,6.41-5.18A5.21,5.21,0,0,0,135.09,88.69Zm-1-18.49a5.38,5.38,0,1,0-5.38,5.38A5.41,5.41,0,0,0,134.13,70.2Z"/></g></g></g></g></svg>