<svg xmlns="http://www.w3.org/2000/svg" viewBox="0 0 155 155"><defs><style>.cls-1{fill:none;}.cls-2{fill:#fff;}</style></defs><g id="Layer_2" data-name="Layer 2"><g id="Layer_1-2" data-name="Layer 1"><g id="Layer_2-2" data-name="Layer 2"><g id="Layer_1-2-2" data-name="Layer 1-2"><circle class="cls-1" cx="77.5" cy="77.5" r="77.5"/></g></g><g id="Layer_2-3" data-name="Layer 2"><g id="Layer_1-2-3" data-name="Layer 1-2"><path class="cls-2" d="M56.17,64.42c-7.57,7-14.76,14.39-21.69,22a28.65,28.65,0,0,0-2.17,34.23A27.64,27.64,0,0,0,64,132.09c8.38-2.52,13.42-9,19.52-15.22L71,111.23a17.93,17.93,0,0,0-4.57,3.65,14.2,14.2,0,0,1-20,1.56l-.86-.8a14.78,14.78,0,0,1-.22-20.88l.22-.22c6-6.5,12.32-12.78,18.63-19A15.07,15.07,0,0,1,69,72.34c8-3.27,14,.19,18.25,6l8.89-9.91a27,27,0,0,0-37.7-5.85A25.1,25.1,0,0,0,56.17,64.42Zm72.47-22.84A28,28,0,0,0,99.41,27.46c-9.66,1.67-15.54,8-21.82,14.84l13.1,5.91a24.78,24.78,0,0,0,2.68-2.44c6.34-6.74,14.84-6.82,20.83-1s6.44,14.68,0,21.47-12.27,12.88-18.79,19a14.2,14.2,0,0,1-20.08.31,12.64,12.64,0,0,1-1.2-1.33l-1.75-2.09-9,10a10.52,10.52,0,0,0,2.09,2.69,27.57,27.57,0,0,0,39,.34c.11-.12.22-.23.34-.34,6.79-6.53,13.42-13.42,19.72-20.24a28.56,28.56,0,0,0,4.14-33Z"/></g></g></g></g></svg>