<svg xmlns="http://www.w3.org/2000/svg" viewBox="0 0 155 155"><defs><style>.cls-1{fill:none;}.cls-2{fill:#fff;}</style></defs><g id="Layer_2" data-name="Layer 2"><g id="Layer_1-2" data-name="Layer 1"><g id="Layer_2-2" data-name="Layer 2"><g id="Layer_1-2-2" data-name="Layer 1-2"><circle class="cls-1" cx="77.5" cy="77.5" r="77.5"/></g></g><g id="Layer_2-3" data-name="Layer 2"><g id="Layer_1-2-3" data-name="Layer 1-2"><path class="cls-2" d="M45,83.17V41.39a6.35,6.35,0,0,1,5.61-7,6.22,6.22,0,0,1,1.43,0h51.14A6.32,6.32,0,0,1,110,40.09a5.82,5.82,0,0,1,0,1.18V125.1a6.31,6.31,0,0,1-5.7,6.84,6.49,6.49,0,0,1-1.08,0H51.68a6.2,6.2,0,0,1-6.7-5.67,5.79,5.79,0,0,1,0-1Zm59.83,0V41.36c0-1.5-.21-1.73-1.59-1.73H51.79c-1.32,0-1.61.29-1.61,1.61v83.69c0,1.79.2,2,2,2h50.5c2.13,0,2.25,0,2.25-2.19Z"/><path class="cls-2" d="M77.51,32.27H68.39c-1.68,0-2.2-.55-2.23-2.25V26.73A3.68,3.68,0,0,1,69.8,23H85.38A3.74,3.74,0,0,1,89,26.73V30c0,1.64-.58,2.22-2.25,2.22Z"/><path class="cls-2" d="M55.63,56.74h44.56V45.2H55.63Zm0,16.07h44.56V61.27H55.63Zm0,16.11h44.59V77.37H55.63Zm0,16.13h44.59V93.51H55.63Zm0,16.13h44.59V109.61H55.63Z"/><path class="cls-2" d="M55.63,56.74V45.2h44.56V56.74Z"/><path class="cls-2" d="M55.63,72.81V61.27h44.56V72.81Z"/><path class="cls-2" d="M55.63,88.92V77.37h44.59V88.92Z"/><path class="cls-2" d="M55.63,105.05V93.51h44.59v11.54Z"/><path class="cls-2" d="M55.63,121.15V109.61h44.59v11.54Z"/></g></g></g></g></svg>