<svg xmlns="http://www.w3.org/2000/svg" viewBox="0 0 70.1 70.1"><defs><style>.cls-1{fill:none;}.cls-2{fill:#fff;}</style></defs><g id="Layer_2" data-name="Layer 2"><g id="Layer_1-2" data-name="Layer 1"><g id="Layer_2-2" data-name="Layer 2"><g id="Layer_1-2-2" data-name="Layer 1-2"><g id="Layer_2-2-2" data-name="Layer 2-2"><g id="Layer_1-2-2-2" data-name="Layer 1-2-2"><circle class="cls-1" cx="35.05" cy="35.05" r="35.05"/></g></g></g></g><g id="Layer_2-3" data-name="Layer 2"><g id="Layer_1-2-3" data-name="Layer 1-2"><path class="cls-2" d="M23.06,58.44a4.8,4.8,0,0,1,3.77-5.63,4.66,4.66,0,0,1,1-.1,4,4,0,0,0,4-3.16,2.56,2.56,0,0,0,.05-.62V39.69a2.66,2.66,0,0,1,1.11-2.37.44.44,0,0,0,.14-.33V22.33a.74.74,0,0,0,0-.21l-15.78.65c.32.79.62,1.58.93,2.37l4,10q1.82,4.59,3.64,9.16a1.19,1.19,0,0,1-.22,1.34A13,13,0,0,1,18,49.92,13,13,0,0,1,7.92,47.79a24.27,24.27,0,0,1-2.48-2.27,1,1,0,0,1-.22-1.25c.49-1.25,1-2.51,1.47-3.75Q10,32.27,13.32,24.07a11.32,11.32,0,0,1,.49-1.26,3.17,3.17,0,0,0,.2-1.92c0-.22,0-.44,0-.69L33,18a1,1,0,0,0-.23-.93,3,3,0,0,1-.72-3.33,3,3,0,0,1,2.55-2.07,3.16,3.16,0,0,1,3.51,2.19,3,3,0,0,1-.7,3.1,1,1,0,0,0-.32,1l19,2.15c0,.54-.07,1.08-.09,1.62a1.08,1.08,0,0,0,0,.44l4.26,10.59,4.56,11.37a1.19,1.19,0,0,1-.22,1.33,13.39,13.39,0,0,1-20.09.08,1.22,1.22,0,0,1-.27-1.42c1.58-4,3.16-8,4.75-12l3.6-9c.05-.13.09-.26.15-.45L37.07,22.1V36.85a.57.57,0,0,0,.25.55,2.41,2.41,0,0,1,1,2.09v9.33a4,4,0,0,0,3.9,3.89,4.65,4.65,0,0,1,4.7,3.45,14.7,14.7,0,0,1,.24,2.28ZM62.43,44.05,54.56,24.46c-2.63,6.59-5.2,13.07-7.79,19.59Zm-54.72,0H23.35c-2.6-6.52-5.17-13-7.79-19.57C12.93,31,10.33,37.52,7.71,44Z"/></g></g></g></g></svg>