<svg xmlns="http://www.w3.org/2000/svg" viewBox="0 0 70.1 70.1"><defs><style>.cls-1{fill:#fff;}.cls-2{fill:none;}</style></defs><g id="Layer_2" data-name="Layer 2"><g id="Layer_1-2" data-name="Layer 1"><g id="Layer_2-2" data-name="Layer 2"><g id="Layer_1-2-2" data-name="Layer 1-2"><rect class="cls-1" x="5.05" y="30.85" width="1.94" height="8.39"/><rect class="cls-1" x="9.14" y="29.35" width="1.94" height="11.4"/><rect class="cls-1" x="13.22" y="27.2" width="1.94" height="15.7"/><rect class="cls-1" x="17.24" y="24.9" width="1.94" height="20.36"/><rect class="cls-1" x="21.32" y="22.33" width="1.94" height="25.44"/><rect class="cls-1" x="25.41" y="17.38" width="1.94" height="35.34"/><rect class="cls-1" x="29.49" y="11.86" width="1.94" height="46.38"/><rect class="cls-1" x="33.5" y="19.88" width="1.94" height="30.32"/><rect class="cls-1" x="37.58" y="24.62" width="1.94" height="20.86"/><rect class="cls-1" x="41.67" y="28.13" width="1.94" height="13.83"/><rect class="cls-1" x="45.69" y="30.85" width="1.94" height="8.39"/><rect class="cls-1" x="49.77" y="28.13" width="1.94" height="13.83"/><rect class="cls-1" x="53.86" y="24.9" width="1.94" height="20.36"/><rect class="cls-1" x="57.87" y="24.4" width="1.94" height="21.29"/><rect class="cls-1" x="61.96" y="29.85" width="1.94" height="10.47"/></g></g><g id="Layer_2-3" data-name="Layer 2"><g id="Layer_1-2-3" data-name="Layer 1-2"><g id="Layer_2-2-2" data-name="Layer 2-2"><g id="Layer_1-2-2-2" data-name="Layer 1-2-2"><circle class="cls-2" cx="35.05" cy="35.05" r="35.05"/></g></g></g></g></g></g></svg>