<svg xmlns="http://www.w3.org/2000/svg" viewBox="0 0 155 155"><defs><style>.cls-1,.cls-2{fill:none;}.cls-2{stroke:#fff;stroke-linecap:round;stroke-linejoin:round;stroke-width:5.97px;}.cls-3{fill:#fff;}</style></defs><g id="Layer_2" data-name="Layer 2"><g id="Layer_1-2" data-name="Layer 1"><circle class="cls-1" cx="77.5" cy="77.5" r="77.5"/><polyline class="cls-2" points="26.53 91.76 65.44 91.76 76.71 54.16 92.85 115.34 109.42 45.22 119.61 93.02 129.54 93.02"/><path class="cls-3" d="M28.43,51.19a3,3,0,1,1-3,3,3,3,0,0,1,3-3"/><path class="cls-3" d="M28.43,62.83a3,3,0,1,1-3,3,3,3,0,0,1,3-3"/><path class="cls-3" d="M28.43,74.47a3,3,0,1,1-3,3,3,3,0,0,1,3-3"/><line class="cls-2" x1="36.94" y1="54.16" x2="57.55" y2="54.16"/><line class="cls-2" x1="36.94" y1="65.8" x2="57.55" y2="65.8"/><line class="cls-2" x1="36.94" y1="77.44" x2="57.55" y2="77.44"/></g></g></svg>