<svg xmlns="http://www.w3.org/2000/svg" viewBox="0 0 70.1 70.1"><defs><style>.cls-1{fill:#fff;}.cls-2{fill:none;}</style></defs><g id="Layer_2" data-name="Layer 2"><g id="Layer_1-2" data-name="Layer 1"><g id="Layer_2-2" data-name="Layer 2"><g id="Layer_1-2-2" data-name="Layer 1-2"><path class="cls-1" d="M34.23,18.38A17.62,17.62,0,1,0,51.84,36h0A17.61,17.61,0,0,0,34.23,18.38Zm0,32.4A14.78,14.78,0,1,1,49,36h0A14.79,14.79,0,0,1,34.23,50.78Z"/><path class="cls-1" d="M34.23,24.07A12,12,0,1,0,46.17,36h0A12,12,0,0,0,34.23,24.07Zm0,3.32A8.26,8.26,0,0,0,26,35.64H24.25a10,10,0,0,1,10-10h0Z"/><path class="cls-1" d="M35.05,3.8A31.63,31.63,0,0,0,23.18,64.73c.68-1.72,1.4-3.52,2.15-5.32A25.9,25.9,0,0,1,35.05,9.53c.43,0,.86,0,1.29,0l.55-5.69C36.28,3.82,35.66,3.8,35.05,3.8ZM49.37,7.24C48.7,9,48,10.75,47.26,12.6A25.9,25.9,0,0,1,35.05,61.32H34.8L34.22,67h.83A31.63,31.63,0,0,0,49.37,7.23Z"/><polygon class="cls-1" points="36.06 0 36.06 0 33.93 13.39 41.46 7.73 36.06 0 36.06 0 36.06 0"/><polygon class="cls-1" points="35.62 58.62 35.62 58.62 34.77 70.1 29.17 63.91 35.62 58.62 35.62 58.62 35.62 58.62"/></g></g><g id="Layer_2-3" data-name="Layer 2"><g id="Layer_1-2-3" data-name="Layer 1-2"><g id="Layer_2-2-2" data-name="Layer 2-2"><g id="Layer_1-2-2-2" data-name="Layer 1-2-2"><circle class="cls-2" cx="35.05" cy="35.05" r="35.05"/></g></g></g></g></g></g></svg>