<svg xmlns="http://www.w3.org/2000/svg" viewBox="0 0 155 155"><defs><style>.cls-1{fill:none;}.cls-2{fill:#fff;}</style></defs><g id="Layer_2" data-name="Layer 2"><g id="Layer_1-2" data-name="Layer 1"><g id="Layer_2-2" data-name="Layer 2"><g id="Layer_1-2-2" data-name="Layer 1-2"><circle class="cls-1" cx="77.5" cy="77.5" r="77.5"/></g></g><g id="Layer_2-3" data-name="Layer 2"><g id="Layer_1-2-3" data-name="Layer 1-2"><path class="cls-2" d="M18.65,81.69v-6c.31-1,.68-1.89.91-2.83,2.7-11,12.19-16.33,22.67-12.5a11.78,11.78,0,0,0,9.49,0,22.22,22.22,0,0,1,5.76-1.6A14.33,14.33,0,0,1,72,65.47c-10.09,7.86-8.65,19.63,2.62,26.7-2.49,4-4.72,8.15-7.55,11.9-3.93,5.24-6.86,5.47-13.1,3.82a20,20,0,0,0-10.79-.31c-8.13,2.8-10.3,1.62-16-5.45C22.34,96.15,20.38,89,18.65,81.69Z"/><path class="cls-2" d="M60.81,42.75c-1,10.06-6.34,16.12-13.86,15.72C46,51.61,49.57,47.05,59.08,42.75Z"/><path class="cls-2" d="M126.32,68.09V67.8a.88.88,0,0,0,0-.23h-37V94.4a4.25,4.25,0,0,0,2.35,3.9,4.66,4.66,0,0,0,2.28.53h2.78v9.06a4.22,4.22,0,0,0,.71,2.36A4.16,4.16,0,0,0,102,112a4.1,4.1,0,0,0,3.12-3.9V99.32a1.41,1.41,0,0,1,0-.41,46.38,46.38,0,0,1,5.53,0V108a4,4,0,0,0,.91,2.62,4.13,4.13,0,0,0,6.42,0,4.11,4.11,0,0,0,1-2.62V98.88h2.62a6.31,6.31,0,0,0,.87,0,4.48,4.48,0,0,0,3.93-4.51Zm0-2.46a6.6,6.6,0,0,0-.19-1.92,15.25,15.25,0,0,0-1.39-4.56,16.79,16.79,0,0,0-3.93-5.24,18.71,18.71,0,0,0-3.61-2.62l-.32-.21V50.9c.84-1.49,1.65-3,2.49-4.45.13-.24.27-.48.37-.71a.58.58,0,0,0-1-.53,1.67,1.67,0,0,0-.16.24l-2.62,4.77c-.18.31,0,.39-.58.21a19.08,19.08,0,0,0-6.7-1.49,17.1,17.1,0,0,0-3.2,0,19,19,0,0,0-5,1.2l-.6.47-.19-.29-2.83-5-.15-.16a.59.59,0,0,0-.63-.18.46.46,0,0,0-.39.52.79.79,0,0,0,.13.45l2.41,4.35c.13.26.26.52.42.79l-.34.21a17.61,17.61,0,0,0-6.74,6.36,15.11,15.11,0,0,0-2,4.88,19.28,19.28,0,0,0-.34,2.28,7.36,7.36,0,0,0,0,1.15H126C126.32,66.05,126.34,66.05,126.32,65.63Zm-27.7-5.51a1.5,1.5,0,1,1,.11,0Zm18.34,0a1.53,1.53,0,1,1,.16,0H117ZM87.61,71.29V70.5a4.14,4.14,0,0,0-8.25.45V88.48a4,4,0,0,0,1.26,2.8,4.08,4.08,0,0,0,3.12,1.13,4.2,4.2,0,0,0,3.93-4.25V71.29Zm48.51-.21a4.24,4.24,0,0,0-1.65-3.46,4.12,4.12,0,0,0-2.62-.81,3.87,3.87,0,0,0-2.62,1.2A4.11,4.11,0,0,0,128,71V88.27a4.17,4.17,0,0,0,8.33,0h0c-.18-5.77-.15-11.45-.18-17.19Z"/><path class="cls-2" d="M89.21,67.59h37.05a.49.49,0,0,1,0,.24V94.32a4.48,4.48,0,0,1-3.93,4.48,4.12,4.12,0,0,1-.86,0h-2.62v9.09a4.09,4.09,0,0,1-7.29,2.73,4,4,0,0,1-.91-2.62V98.93a51,51,0,0,0-5.53,0,1.48,1.48,0,0,0,0,.42v8.75a4.29,4.29,0,0,1-7.86,2.2,4.19,4.19,0,0,1-.71-2.35V98.88H93.88a4.51,4.51,0,0,1-2.28-.53,4.25,4.25,0,0,1-2.36-3.9V68.06Z"/><path class="cls-2" d="M126.32,65.63a6.6,6.6,0,0,0-.19-1.92,15.25,15.25,0,0,0-1.39-4.56,16.79,16.79,0,0,0-3.93-5.24,18.71,18.71,0,0,0-3.61-2.62l-.32-.21V50.9c.84-1.49,1.65-3,2.49-4.45.13-.24.27-.48.37-.71a.58.58,0,0,0-1-.53,1.67,1.67,0,0,0-.16.24l-2.62,4.77c-.18.31,0,.39-.58.21a19.08,19.08,0,0,0-6.7-1.49,17.1,17.1,0,0,0-3.2,0,19,19,0,0,0-5,1.2l-.6.47-.19-.29-2.83-5-.15-.16a.59.59,0,0,0-.63-.18.46.46,0,0,0-.39.52.79.79,0,0,0,.13.45l2.41,4.35c.13.26.26.52.42.79l-.34.21a17.61,17.61,0,0,0-6.74,6.36,15.11,15.11,0,0,0-2,4.88,19.28,19.28,0,0,0-.34,2.28,7.36,7.36,0,0,0,0,1.15H126C126.32,66.05,126.34,66.05,126.32,65.63Zm-27.7-5.51a1.5,1.5,0,1,1,.11,0Zm18.34,0a1.53,1.53,0,1,1,.16,0H117Z"/><path class="cls-2" d="M87.67,79.57v8.59a4.2,4.2,0,0,1-4,4.38,4.12,4.12,0,0,1-3.09-1.13,3.93,3.93,0,0,1-1.26-2.8V71a4.14,4.14,0,0,1,8.25-.45v.79Z"/><path class="cls-2" d="M127.86,79.59V71a4.11,4.11,0,0,1,1.21-3,4,4,0,0,1,2.62-1.2,4.12,4.12,0,0,1,2.62.81A4.21,4.21,0,0,1,136,71.08V88.21a4.17,4.17,0,1,1-8.33,0Z"/></g></g></g></g></svg>