<svg xmlns="http://www.w3.org/2000/svg" viewBox="0 0 155 155"><defs><style>.cls-1,.cls-2{fill:none;}.cls-2{stroke:#fff;stroke-linecap:round;stroke-linejoin:round;stroke-width:5.97px;}</style></defs><g id="Layer_2" data-name="Layer 2"><g id="Layer_1-2" data-name="Layer 1"><circle class="cls-1" cx="77.5" cy="77.5" r="77.5"/><path class="cls-2" d="M51.82,114.37V103H34.7"/><circle class="cls-2" cx="108.88" cy="43.04" r="9.99"/><path class="cls-2" d="M99.56,61.57A35.52,35.52,0,0,1,82.25,50.76a5.39,5.39,0,0,0-7-.94,5.94,5.94,0,0,0-1.65,8.24,6.9,6.9,0,0,0,.53.68A46.94,46.94,0,0,0,90.89,70.62l-3.26,3.6L66.81,71.61a5.91,5.91,0,0,0-3.26.56L52.13,77.88a5.71,5.71,0,0,0,4.78,10.37,3.18,3.18,0,0,0,.32-.16l9.87-4.94,11.12,1.39L67.57,96.26A5.71,5.71,0,0,0,76,103.94l26.08-28.68a16.7,16.7,0,0,1,6.79,13.43,5.71,5.71,0,1,0,11.42,0A28.18,28.18,0,0,0,99.57,61.58Z"/></g></g></svg>