<svg xmlns="http://www.w3.org/2000/svg" viewBox="0 0 155 155"><defs><style>.cls-1{fill:none;}.cls-2{fill:#fff;}</style></defs><g id="Layer_2" data-name="Layer 2"><g id="Layer_1-2" data-name="Layer 1"><g id="Layer_2-2" data-name="Layer 2"><g id="Layer_1-2-2" data-name="Layer 1-2"><circle class="cls-1" cx="77.5" cy="77.5" r="77.5"/></g></g><path class="cls-2" d="M77.41,140.94a63.44,63.44,0,1,1,63.53-62.72A63.45,63.45,0,0,1,77.41,140.94Zm-30-67.36a1.86,1.86,0,0,0,.36.08c8.38,0,16.76,0,25.14,0,.77,0,.74-.42.74-1v-14a6.64,6.64,0,0,0-.07-.75c-4-.37-8-.62-11.92-1.11s-7.81-1.21-11.73-1.84C48.85,57.5,47.05,70.55,47.42,73.58ZM81.5,57.88V73.62h26.25a90.56,90.56,0,0,0-2.57-18.71A128.58,128.58,0,0,1,81.5,57.88ZM47.32,81.44a89.9,89.9,0,0,0,2.58,18.72,127.92,127.92,0,0,1,23.68-3V81.44ZM105.2,100a90.68,90.68,0,0,0,2.55-18.54H81.5V97.07c4,.36,8,.6,11.91,1.09S101.22,99.38,105.2,100ZM73.59,50.08V22.34c-.46.13-.84.22-1.2.34a21.89,21.89,0,0,0-7.77,4.64A43.86,43.86,0,0,0,54.31,42.06c-.79,1.73-1.47,3.5-2.25,5.36A115.85,115.85,0,0,0,73.59,50.08ZM52.14,107.64c2.43,6.62,5.52,12.69,10.21,17.82a23.85,23.85,0,0,0,10,6.87c.39.13.79.22,1.23.35V105A113.64,113.64,0,0,0,52.14,107.64ZM103,47.43a54.67,54.67,0,0,0-9.08-16.56,26.18,26.18,0,0,0-9.18-7.39c-1-.46-2.07-.79-3.19-1.21V50.09A116,116,0,0,0,103,47.43ZM81.47,132.68a19.59,19.59,0,0,0,7.27-3.59c7.1-5.52,11-13.15,14.17-21.31-3.23-1.27-18.42-3.11-21.44-2.63ZM39.52,73.61a104.2,104.2,0,0,1,2.8-20.54L30,48.56a55.44,55.44,0,0,0-8,25Zm73.21-20.54a104.62,104.62,0,0,1,2.83,20.51H133a55.48,55.48,0,0,0-8-25ZM30,106.5,42.35,102a102.41,102.41,0,0,1-2.83-20.51H22A55.45,55.45,0,0,0,30,106.5Zm103.19-25H115.54A103.68,103.68,0,0,1,112.72,102a2.08,2.08,0,0,0,.35.2c3.75,1.37,7.5,2.71,11.24,4.11.61.23.8,0,1.06-.45a53.8,53.8,0,0,0,6.39-16C132.35,87.16,132.7,84.38,133.19,81.5ZM34.63,42.05l9.72,3.45c1.49-3.33,2.77-6.55,4.37-9.61S52.21,30,54,27.05A55.8,55.8,0,0,0,34.63,42.05Zm0,71A54.34,54.34,0,0,0,54.09,127.9a69.15,69.15,0,0,1-9.55-18.39ZM101,27.18a69.28,69.28,0,0,1,9.5,18.39l9.85-3.51A54.26,54.26,0,0,0,101,27.18ZM120.35,113l-9.83-3.48a69.15,69.15,0,0,1-9.5,18.34A54.34,54.34,0,0,0,120.35,113Z"/></g></g></svg>