<svg xmlns="http://www.w3.org/2000/svg" viewBox="0 0 155 155"><defs><style>.cls-1{fill:none;}.cls-2{fill:#fff;}</style></defs><g id="Layer_2" data-name="Layer 2"><g id="Layer_1-2" data-name="Layer 1"><g id="Layer_2-2" data-name="Layer 2"><g id="Layer_1-2-2" data-name="Layer 1-2"><circle class="cls-1" cx="77.5" cy="77.5" r="77.5"/></g></g><g id="Layer_2-3" data-name="Layer 2"><g id="Layer_1-2-3" data-name="Layer 1-2"><path class="cls-2" d="M77.58,105.54l-3.62,9,3.65-9ZM80,42.36c-3.14.24-6.27.4-9.36.73a51.51,51.51,0,0,0-5.37.8A76.89,76.89,0,0,0,15.37,77.37a1.84,1.84,0,0,0,0,2.36A76.9,76.9,0,0,0,57.44,111.3l3.43-8.58A66.26,66.26,0,0,1,26,78.58,66.88,66.88,0,0,1,81.55,51.75L85,42.66C83.38,42.52,81.68,42.41,80,42.36Zm64.44,35.06a76.66,76.66,0,0,0-40.24-30.95l-3.38,8.42a66.58,66.58,0,0,1,33.05,23.63,67.5,67.5,0,0,1-53.39,26.83l-3.62,9.2a76.86,76.86,0,0,0,16.1-1.13,76,76,0,0,0,51.45-33.74A1.71,1.71,0,0,0,144.41,77.42Z"/><path class="cls-2" d="M77.85,60.55,65.91,90.14A18.12,18.12,0,0,1,77.82,60.63Z"/><path class="cls-2" d="M80.8,60.41l0,.06L68,92.19h0L80.78,60.41Z"/><path class="cls-2" d="M98.11,78.58A18.1,18.1,0,0,1,84.37,96.15L95.21,69A18.06,18.06,0,0,1,98.11,78.58Z"/><path class="cls-2" d="M105.75,35.54h0l-4.08,10.11-3.38,8.45-5,12.31L81.15,96.63l-3.51,8.77-.06.14-3.62,9-6.28,15.56a6.92,6.92,0,0,1-12.84-5.18L60,112l3.49-8.61L68,92.23l0,0L80.78,60.47l0-.06,3.49-8.66L87.83,43,92.9,30.37A7.38,7.38,0,0,1,94,28.55a8.73,8.73,0,0,1,.73-.76A7.08,7.08,0,0,1,99.34,26a6.86,6.86,0,0,1,6.41,9.52Z"/></g></g></g></g></svg>