<svg xmlns="http://www.w3.org/2000/svg" viewBox="0 0 155 155"><defs><style>.cls-1{fill:none;}.cls-2{fill:#fff;}</style></defs><g id="Layer_2" data-name="Layer 2"><g id="Layer_1-2" data-name="Layer 1"><g id="Layer_2-2" data-name="Layer 2"><g id="Layer_1-2-2" data-name="Layer 1-2"><circle class="cls-1" cx="77.5" cy="77.5" r="77.5"/></g></g><g id="Layer_2-3" data-name="Layer 2"><g id="Layer_1-2-3" data-name="Layer 1-2"><path class="cls-2" d="M79.88,135.29h0a3.86,3.86,0,0,1-3.17-1.64l-30-40.53a42.79,42.79,0,0,1-8.93-25.93,42.12,42.12,0,1,1,75.39,25.93l-30,40.56A3.9,3.9,0,0,1,79.88,135.29ZM79.88,33A34.1,34.1,0,0,0,53,88.23l26.84,36.4,27-36.32A34.28,34.28,0,0,0,79.88,33Z"/><path class="cls-2" d="M79.88,86.34h0A19.49,19.49,0,1,1,99.37,66.86,19.48,19.48,0,0,1,79.88,86.34Z"/></g></g></g></g></svg>