<svg xmlns="http://www.w3.org/2000/svg" viewBox="0 0 155 155"><defs><style>.cls-1{fill:none;}.cls-2{fill:#fff;}</style></defs><g id="Layer_2" data-name="Layer 2"><g id="Layer_1-2" data-name="Layer 1"><g id="Layer_2-2" data-name="Layer 2"><g id="Layer_1-2-2" data-name="Layer 1-2"><circle class="cls-1" cx="77.5" cy="77.5" r="77.5"/></g></g><g id="Layer_2-3" data-name="Layer 2"><g id="Layer_1-2-3" data-name="Layer 1-2"><path class="cls-2" d="M71.49,107.46l38.29-38.68,14.93,14.94q-18.85,19.1-38.11,38.49Z"/><path class="cls-2" d="M128.81,79.54,113.88,64.61a2.77,2.77,0,0,1,.28-.36c2.53-2.53,4.88-5.06,7.41-7.39A10.6,10.6,0,0,1,137,71.36l-.68.71Z"/><path class="cls-2" d="M68.91,111.81l14.19,14-22,7.09Z"/><path class="cls-2" d="M51.64,29.6H26.16a4.23,4.23,0,0,0-4.23,4.23v76.59a4.22,4.22,0,0,0,4.23,4.22H51.64a4.22,4.22,0,0,0,4.23-4.22h0V33.83a4.23,4.23,0,0,0-4.23-4.23ZM39,68.2a5.77,5.77,0,1,1,5.69-5.84v.15a5.77,5.77,0,0,1-5.77,5.69Z"/><ellipse class="cls-2" cx="22.84" cy="71.62" rx="2.61" ry="4.45"/><ellipse class="cls-2" cx="22.84" cy="83.39" rx="2.61" ry="4.45"/></g></g></g></g></svg>