<svg xmlns="http://www.w3.org/2000/svg" viewBox="0 0 1423.63 402.05"><defs><style>.cls-1,.cls-2{fill:none;}.cls-1{stroke:#ffffff42;stroke-miterlimit:10;stroke-width:1.35px;}</style></defs><g id="Layer_2" data-name="Layer 2"><g id="Layer_1-2" data-name="Layer 1"><path class="cls-1" d="M955.88.51a83.82,83.82,0,0,0,109.92,0m-316,0,30.67,30.67L811.11.51m273.56,0-73.83,73.82L937,.51m-88.72,0L799,49.76l211.82,211.78L1271.93.51"/><path class="cls-1" d="M.48,377.33l2.15,2.15,324-324-55-55M85.73.51l54.35,54.34L2.63,192.27.48,190.12M65.54.51a83.75,83.75,0,0,1-3.81,114.08A83.37,83.37,0,0,1,.48,139"/><rect class="cls-2" x="0.48" y="0.51" width="1423.15" height="401.54"/></g></g></svg>