<svg xmlns="http://www.w3.org/2000/svg" viewBox="0 0 175.88 40"><defs><style>.cls-1{fill:#ffa823;}.cls-2{fill:#4d4d4d;}</style></defs><g id="Layer_2" data-name="Layer 2"><g id="Home_page" data-name="Home page"><polygon class="cls-1" points="165.11 12.66 165.11 27.34 175.88 27.34 175.88 24.36 168.5 24.36 168.5 21.19 175.23 21.19 175.23 18.3 168.5 18.3 168.5 15.64 175.82 15.64 175.82 12.66 165.11 12.66"/><polygon class="cls-1" points="163.21 21.61 163.21 18.72 156.1 18.72 156.1 15.64 163.82 15.64 163.82 12.66 152.71 12.66 152.71 27.34 156.1 27.34 156.1 21.61 163.21 21.61"/><path class="cls-1" d="M145.56,12.66h-3.18l-6,14.68h3.69l1.32-3.55h5.12l1.32,3.55h3.69Zm-3.08,8.24.88-2.39.61-1.74c.19.59.38,1.17.61,1.74l.88,2.39Z"/><path class="cls-1" d="M131.83,18.45c-2.53-.53-3.48-1.09-3.48-1.91s.9-1.41,2.16-1.41a3.27,3.27,0,0,1,3.23,2.58l2.54-1.51a5.53,5.53,0,0,0-5.7-3.83,5.9,5.9,0,0,0-3.84,1.15,3.71,3.71,0,0,0-1.45,3.06c0,2.33,1.53,3.8,4.61,4.4,2.27.42,3.29,1.07,3.29,2.16,0,.86-.85,1.51-2.17,1.51-2,0-3-1.07-3.57-3.16l-2.87,1.38c.86,3.17,3,4.76,6.44,4.76a5.75,5.75,0,0,0,4-1.34,4.38,4.38,0,0,0,1.47-3.38c0-2.43-1.45-3.77-4.7-4.46"/><polygon class="cls-2" points="123.35 27.34 123.35 24.36 115.97 24.36 115.97 21.19 122.7 21.19 122.7 18.3 115.97 18.3 115.97 15.64 123.28 15.64 123.28 12.66 112.57 12.66 112.57 27.34 123.35 27.34"/><polygon class="cls-2" points="103.88 24.19 103.88 12.66 100.48 12.66 100.48 27.34 111.23 27.34 111.23 24.19 103.88 24.19"/><path class="cls-2" d="M83.23,14.57a7.41,7.41,0,0,0-5.51-2.2A7.49,7.49,0,0,0,70,20a7.8,7.8,0,0,0,13.23,5.43A7.36,7.36,0,0,0,85.43,20a7.34,7.34,0,0,0-2.2-5.43m-2.43,8.7a4.53,4.53,0,0,1-6.16,0A4.43,4.43,0,0,1,73.4,20a4.43,4.43,0,0,1,1.24-3.27,4.45,4.45,0,0,1,6.16,0A4.42,4.42,0,0,1,82,20a4.37,4.37,0,0,1-1.23,3.25"/><polygon class="cls-2" points="69.21 27.34 69.21 24.36 61.83 24.36 61.83 21.19 68.56 21.19 68.56 18.3 61.83 18.3 61.83 15.64 69.15 15.64 69.15 12.66 58.43 12.66 58.43 27.34 69.21 27.34"/><path class="cls-2" d="M51.45,12.66H44.6V27.34H48v-5h3.46c3.59,0,5.75-1.66,5.75-4.83S55,12.66,51.45,12.66m-.08,6.88H48V15.47h3.38c1.66,0,2.43.78,2.43,2s-.77,2-2.43,2"/><path class="cls-2" d="M93.52,12.66H86.66V27.34h3.4v-5h3.46c3.59,0,5.75-1.66,5.75-4.83s-2.16-4.86-5.75-4.86m-.08,6.88H90.06V15.47h3.38c1.66,0,2.43.78,2.43,2s-.77,2-2.43,2"/><polygon class="cls-1" points="38.94 0 28.49 0 11.51 0 3.16 0 0 0 0 40 11.51 40 11.51 11.51 28.49 11.51 28.49 28.49 13.81 28.49 13.81 40 28.49 40 38.94 40 40 40 40 0 38.94 0"/><path class="cls-1" d="M20,27.34A7.34,7.34,0,1,0,12.66,20,7.34,7.34,0,0,0,20,27.34"/></g></g></svg>