<svg xmlns="http://www.w3.org/2000/svg" viewBox="0 0 359.29 196.64"><defs><style>.cls-1,.cls-3{fill:none;}.cls-2{opacity:0.49;}.cls-3{stroke:#ffa823;stroke-miterlimit:10;}</style></defs><g id="Layer_2" data-name="Layer 2"><g id="product_page" data-name="product page"><polygon class="cls-1" points="169.54 0.39 359.29 0.39 359.29 196.28 0.35 196.28 0.35 0.39 169.54 0.39"/><g class="cls-2"><line class="cls-3" x1="66.22" y1="0.39" x2="0.35" y2="66.25"/><polyline class="cls-3" points="0.35 93.15 32.01 61.49 117.87 147.35 217.19 48.04 169.54 0.39"/><line class="cls-3" x1="32.11" y1="196.28" x2="0.35" y2="164.51"/><polyline class="cls-3" points="304.22 0.39 345.65 41.81 351.88 48.04 203.64 196.28"/><path class="cls-3" d="M155.53.39a61.33,61.33,0,0,1,5.28,4.71A60.71,60.71,0,1,1,75,5.1,61.45,61.45,0,0,1,80.24.39"/></g></g></g></svg>